<?xml version="1.0" encoding="utf-8"?>
<!-- Generator: Adobe Illustrator 21.0.0, SVG Export Plug-In . SVG Version: 6.00 Build 0)  -->
<svg version="1.1" id="Layer_1" xmlns="http://www.w3.org/2000/svg" xmlns:xlink="http://www.w3.org/1999/xlink" x="0px" y="0px"
	 width="2272px" height="1872px" viewBox="0 0 2272 1872" enable-background="new 0 0 2272 1872" xml:space="preserve">
<rect fill="#FEDDBE" width="2272" height="1872"/>
<g>
	<path fill="#3C2415" d="M1835.7,1347.1c-4.3-3.5-10.1-3.5-13,0l-75.2,99.9c-11.5-9-24.9-16.6-39.6-22.5l30.2-98.6
		c4.7,0.7,9.2-2.1,10.6-6.7l10.5-34.5c1.6-5.1-1.3-10.5-6.4-12.1l-5.5-1.7c-5.1-1.6-10.5,1.3-12.1,6.4l-10.5,34.5
		c-1.4,4.6,0.8,9.5,5.1,11.5l-30,98.1c-17.2-6-36-9.7-55.8-10.6l22.3-105.7c7.2-0.4,13.5-5.5,15-12.8c1.9-8.8-3.8-17.4-12.5-19.2
		c-8.8-1.8-17.4,3.8-19.2,12.5c-1.6,7.4,2.2,14.6,8.6,17.8l-22.6,107.2c-0.4,0-0.7,0-1.1,0c-21.5,0-42.1,3.3-60.8,9.3l-29.5-122
		c7.4-4,11.6-12.7,9.5-21.3c-2.5-10.3-12.8-16.6-23.1-14.1c-10.3,2.5-16.6,12.8-14.1,23.1c2.1,8.6,9.7,14.4,18.1,14.6l29.7,122.9
		c-18.4,7-34.7,16.6-48.2,28.2l-76.6-105.1c-2.9-3.6-8.7-3.7-13-0.2c-4.3,3.5-5.5,9.2-2.7,12.8l86.1,98.1
		c-21.3,20.7-34,46.8-34,75.2c0,3.7,0.2,7.3,0.6,10.9c0,0.1,0,0.2,0,0.2c0.1,0.8,0.2,1.6,0.3,2.4c0,0.1,0,0.1,0,0.2
		c0.5,3.2,1.1,6.3,1.9,9.4h-3.2c-3.8,0-7,2.8-7,6.3v20.3v20.3c0,3.5,3.1,6.3,7,6.3h320.2c3.8,0,7-2.8,7-6.3v-20.3v-20.3
		c0-3.5-3.1-6.3-7-6.3h-5.9c1.9-7.5,2.9-15.2,2.9-23.1c0-1.1,0-2.2-0.1-3.3c0-0.3,0-0.7-0.1-1c0-0.8-0.1-1.5-0.1-2.3
		c0-0.4-0.1-0.8-0.1-1.2c-0.1-0.7-0.1-1.4-0.2-2.1c0-0.4-0.1-0.8-0.1-1.2c-0.1-0.7-0.2-1.4-0.3-2.1c-0.1-0.4-0.1-0.8-0.2-1.1
		c-0.1-0.7-0.2-1.4-0.3-2.1c-0.1-0.4-0.1-0.7-0.2-1.1c-0.1-0.7-0.3-1.5-0.4-2.2c-0.1-0.3-0.1-0.6-0.2-0.9c-0.2-0.8-0.4-1.6-0.6-2.4
		c-0.1-0.2-0.1-0.5-0.2-0.7c-0.2-0.9-0.5-1.9-0.8-2.8c0-0.1-0.1-0.2-0.1-0.3c-5.8-19.8-18-37.8-34.8-52.7l84-92.7
		C1841.1,1356.3,1840,1350.6,1835.7,1347.1z M1733.7,1306.4l6.5-21.3c1-3.1,3.5-5.1,5.8-4.5l1.2,0.4l0,0l1.2,0.4
		c2.2,0.7,3.2,3.8,2.3,6.9l-6.5,21.3c-1,3.1-3.5,5.1-5.8,4.5l-1.2-0.4l0,0l-1.2-0.4C1733.7,1312.7,1732.7,1309.6,1733.7,1306.4z
		 M1437.2,1368.7c-4.8-6-6.7-12.4-4.2-14.4c2.5-2,8.4,1.3,13.2,7.2c4.8,6,6.7,12.4,4.2,14.4
		C1447.8,1377.9,1442,1374.7,1437.2,1368.7z M1824.6,1369.5c-4.9,5.9-10.8,9.1-13.3,7c-2.4-2-0.5-8.5,4.4-14.4
		c4.9-5.9,10.8-9.1,13.3-7C1831.4,1357.2,1829.5,1363.6,1824.6,1369.5z"/>
	<path fill="#3C2415" d="M493.6,1441.6l21.7-28.6c-17.3-16.4-32.1-32.9-32.1-32.9l-17.6,47.9c-8.9-2.3-18.1-3-27.3-2.2
		c-1.2,0.1-2.4,0.2-3.6,0.4c-19.7,2.7-38.5,12.7-52.9,28.2c-7.4,7.9-13.4,17-17.8,27c-9.8,21.9-11.2,46.1-4,68
		c4,12.4,10.5,23.2,19,32c0,0-0.1-0.1-0.1-0.1c0.1,0.1,0.3,0.3,0.4,0.4c0.4,0.4,0.8,0.8,1.3,1.3c0.5,0.5,1,1,1.6,1.5
		c0.4,0.4,0.9,0.8,1.3,1.2c0.6,0.5,1.2,1,1.8,1.5c0.4,0.3,0.8,0.7,1.2,1c0.7,0.5,1.4,1.1,2.1,1.6c0.3,0.3,0.7,0.5,1,0.8
		c0.8,0.6,1.7,1.2,2.6,1.8c0.2,0.1,0.4,0.3,0.7,0.5c1.1,0.7,2.2,1.4,3.3,2c0,0,0,0,0.1,0c2.4,1.4,4.9,2.7,7.5,3.9
		c13.4,6,28.3,8,43,6c17.3-2.4,33.8-10.4,47.3-22.6c0.4-0.4,0.9-0.8,1.3-1.2c0.5-0.5,1-1,1.5-1.5c0.8-0.8,1.6-1.7,2.4-2.5
		c0.1-0.1,0.2-0.2,0.3-0.3c0,0,0,0,0,0c0,0,0,0,0,0c7.4-7.9,13.4-17,17.8-27c9.8-21.9,11.2-46.1,4-68
		C516.2,1465.2,506.6,1451.4,493.6,1441.6z M489.8,1491.8c4.6,14.1,3.6,29.7-2.8,44.1c-3,6.6-6.9,12.6-11.8,17.9
		c-9.1,9.8-20.8,16.1-33,17.8c-8.7,1.2-17,0.1-24.8-3.4c-12-5.4-21.1-15.7-25.5-29.2c-4.6-14.1-3.6-29.7,2.8-44.1
		c3-6.6,6.9-12.6,11.8-17.9c9.1-9.8,20.8-16.1,33-17.8c8.7-1.2,17.1-0.1,24.8,3.4C476.3,1468,485.4,1478.3,489.8,1491.8z"/>
	<path fill="#3C2415" d="M661.6,1429.1c0.3,0.2,0.6,0.4,0.9,0.6c-10.9-5.8-22.8-9.4-35-10.3c-10.5-0.7-20.8,0.6-30.7,3.9l-34.8-82.3
		c-0.5-1.3-1.4-2.3-2.6-3.1c-10.3-6.5-20.3-14.4-29.8-23.3l-3-15.4l-11.9,0.3c-1.9-2.1-3.7-4.1-5.6-6.2l1.3-13.4l-13.8-1.8
		c-1.9-2.4-3.8-4.9-5.6-7.3l1.1-13.1l-12.9-3.5c-1.7-2.4-3.3-4.9-4.9-7.3l4-13.5l-13.4-1.5c-1.5-2.4-2.9-4.8-4.4-7.3l1.6-14.1
		l-12.1-4.2c-1.2-2.2-2.4-4.4-3.6-6.6l3.8-13.3l-12.8-4.1c-1.7-3.4-3.4-6.8-5-10.1l2.9-8.7l-7.9-1.7c-1.5-3.3-3-6.5-4.5-9.7
		l2.9-11.3l-10-4.5c-1.5-3.5-3-7-4.3-10.2l4.8-10l-9-5.3l-2.7-1.6c-0.4-0.9-0.9-1.7-1.6-2.4c0,0,0,0,0,0c0,0-0.1-0.1-0.1-0.1
		c-0.1-0.1-0.3-0.2-0.4-0.3c-0.2-0.2-0.4-0.3-0.7-0.5c-0.1-0.1-0.2-0.1-0.3-0.2c-0.2-0.1-0.4-0.2-0.6-0.3c-0.1,0-0.2-0.1-0.3-0.1
		c-0.3-0.1-0.6-0.2-0.9-0.3c0,0,0,0-0.1,0c-0.3-0.1-0.6-0.1-1-0.1c-0.1,0-0.1,0-0.2,0c-0.3,0-0.7,0-1.1,0.1c0,0,0,0,0,0c0,0,0,0,0,0
		c-0.1,0-0.2,0.1-0.3,0.1c-0.3,0.1-0.5,0.1-0.8,0.2c-0.2,0.1-0.4,0.2-0.6,0.3c-0.2,0.1-0.3,0.1-0.5,0.2c-2,1.1-3.3,3.2-3.4,5.5
		c-2.4,57,17.7,150.3,82,225.3c0.1,0.1,0.1,0.1,0.2,0.2l95.7,102c0,0,0,0-0.1,0.1c-1.7,1.5-3.2,3-4.8,4.6c-0.2,0.2-0.4,0.4-0.6,0.6
		c-9.4,10.1-16,22.4-19.5,36.4c-5.6,22.4-2.5,46.4,8.8,67.6c15.3,28.8,43.8,47.9,74.4,50c14.9,1,29.6-2.1,42.5-9
		c7.7-4.1,14.6-9.4,20.5-15.7c0,0,0.1-0.1,0.1-0.1c0,0,0,0,0,0c9.4-10.1,16-22.4,19.5-36.5c5.6-22.4,2.5-46.4-8.8-67.6
		C692.6,1451.8,678.3,1437.8,661.6,1429.1z M600.6,1457.8c7.5-4,15.8-5.7,24.5-5.1c19.2,1.3,37.3,13.7,47.2,32.4
		c7.4,13.9,9.5,29.5,5.9,43.8c-2.1,8.4-6.1,16-11.6,21.9c-3.4,3.6-7.3,6.7-11.7,9c-7.5,4-15.8,5.7-24.5,5.1
		c-19.2-1.3-37.3-13.7-47.2-32.4c-7.4-13.9-9.5-29.5-5.9-43.8c2.1-8.4,6.1-16,11.7-21.9C592.3,1463.2,596.3,1460.2,600.6,1457.8z
		 M521.1,1343.5c1.9-2,4.4-3.2,7.1-3.2c2.7-0.1,5.3,0.9,7.3,2.7c2,1.9,3.2,4.4,3.2,7.1c0.1,2.7-0.9,5.3-2.7,7.3
		c-1.9,2-4.4,3.2-7.1,3.2c-2.7,0.1-5.3-0.9-7.3-2.7c-2-1.9-3.2-4.4-3.3-7.1C518.3,1348.1,519.3,1345.5,521.1,1343.5z"/>
	<path fill="#3C2415" d="M559.3,1310.9l11.9,13.3c0,0,0,0,0,0l0,0c0,0,3.4-4.7,3.6-4.9c55.5-78.2,68-169.9,61.8-224.6
		c-0.4-3.1-2.9-5.6-6-5.9c-0.1,0-0.2,0-0.3,0c0,0,0,0,0,0c-1,0-2,0.1-2.9,0.5l0,0c-1.1,0.5-2.1,1.2-2.9,2.2l-12.1,9.4l5.9,8.6
		c-1,2.9-2,5.9-3.1,9l-9.7,5l4.5,9.4c-1.3,3.5-2.6,7-4,10.7l-11.1,4.4l4.9,11.3c-1.4,3.4-2.8,6.8-4.3,10.3l-10.1,3l4.7,9.4
		c-1.4,3.1-2.8,6.2-4.2,9.3l-11.1,4.6l3.3,11.9c-1.2,2.4-2.4,4.9-3.6,7.3l-11.6,3.6l3.3,12.2c-1.6,3-3.3,5.9-4.9,8.9l-8.8,2.2l3,7.7
		c-1.5,2.5-3,4.9-4.5,7.4l-11.5,3.8l1.7,11.2c-1.7,2.5-3.5,5-5.2,7.5l-11.1,1.5l4.6,7.4L559.3,1310.9z"/>
	<path fill="#3C2415" d="M2076.2,1487.4c0,0-0.1,0.4-0.4,1.2v-5.6c0,0,0-7.6-11.7-13.9c-1.9-1.4-4.2-2.6-6.7-3.5
		c-15-7.9-31.9-11.8-48.7-12.9c-20-1.2-40.8-0.9-60.7,1.7c-10.1,1.3-25,3.1-35.1,9.5c-6.2,3.3-10.7,7.9-12.2,14.2v52.8
		c-7,0.3-11.5,0.5-12.2,0.5c-0.1,0-0.1,0-0.1,0l1.3,76.7c0,0,12.4-0.3,30.3-1.4c0,0,0,0,0,0c36.3-2.2,95.5-7.4,121.8-18.9
		c39.2-17.2,30.9-25.1,32.2-29.1C2075.4,1554.9,2076.2,1487.4,2076.2,1487.4z"/>
	<path fill="#3C2415" d="M251.2,1294.7c-25.1-5-20.9-43.5-20.9-43.5s-9.4-87.3,0-116.6c4.4-13.7,12.3-25.6,7.5-30.1
		c-2.2-2.1-7.9-2.6-13.5-2.5l-40-126.7c-27.3,145.9,0.1,145.7,11.9,165.4c-3.1,6.4-6.1,11.3-6.1,11.3v49.9H175l0,37.2l-11.5-0.2v9.8
		h18.4v128.7c0,0,11.7,23.4,11.7,75.2c0,51.8,0,71,0,71h-60.2c0,0,0-4.2,0-71s13-76.9,13-76.9V1237h27.4v-40.1h-23.6v-42.6
		c0,0-3.2-5.1-6.5-12c11.3-21.3,40.7-17.3,12.8-166.9l-40.1,127v0.5c-1.4,0.1-3,0.2-4.6,0.4c-19.2,1.7,1.7,25.1,2.5,79.4
		s-5,54.3-10.9,80.2c-5.9,25.9,10.9,42.6,10.9,95.3c0,52.7,0,117,0,177.2s10.9,50.1,51.8,50.1c41,0,44.3,10.9,44.3-50.1
		s-7.5-83.6,43.5-92.8c51-9.2,107-7.5,109.5-91.1C365.7,1267.9,276.3,1299.7,251.2,1294.7z M280.6,1406.2
		c-34.3,2.4-63.5-15.5-65.2-39.9c-1.7-24.4,24.7-46.1,59-48.5c34.3-2.4,63.5,15.5,65.2,39.9C341.4,1382,314.9,1403.8,280.6,1406.2z"
		/>
	<path fill="#3C2415" d="M1033.9,1413c-57.2-15-47-86.5-47-86.5h-7.4l-5.8-81.3c0.1,0,0.1-0.1,0.2-0.1l-8.2-283.8c0,0-0.2-0.4-0.6-1
		l0-0.1c0,0-0.2-0.3-0.6-0.9c-2.7-4.5-9.4-15.1-14.2-15.5c-3.4-2-6.5-1.7-8.1,3.4c-5,5.1-9.9,14.1-9.9,14.1l-7.2,248.7l-7.3,116.6
		h-6.7c0,0,10.2,71.5-47,86.5s-81.8,49.1-74.3,124c7.5,74.9,52.5,73.6,82.4,72.2c28.6-1.3,49.7-18.7,57.6-109.7h12.3
		c2.6,0,4.7-2.1,4.7-4.7v-19.9c0-2.6-2.1-4.7-4.7-4.7h-10.3c5.7-89.3,7.2-143.8,7.2-143.8h-5.8c2.5-10.1,7.7-28.9,15.7-46.4
		c8,17.6,13.2,36.3,15.7,46.4h-5.8c0,0,1.5,54.5,7.2,143.8h-11.6c-2.6,0-4.7,2.1-4.7,4.7v19.9c0,2.6,2.1,4.7,4.7,4.7h13.7
		c7.8,91,29,108.4,57.6,109.7c30,1.4,74.9,2.7,82.4-72.2C1115.6,1462.1,1091.1,1428,1033.9,1413z M858,1572.3
		c-26.3,0-47.7-26.8-47.7-59.8c0-33,21.4-59.8,47.7-59.8s47.7,26.8,47.7,59.8C905.7,1545.5,884.4,1572.3,858,1572.3z M1040,1572.3
		c-26.3,0-47.7-26.8-47.7-59.8c0-33,21.4-59.8,47.7-59.8c26.3,0,47.7,26.8,47.7,59.8C1087.7,1545.5,1066.3,1572.3,1040,1572.3z"/>
	<path fill="#3C2415" d="M1204.6,581.5l-0.1,0.3v-2.4c0-2.8-2.3-16.5-5.1-16.5c-2.8,0-5.1,13.7-5.1,16.5v4.3l-20.1,78.4
		c-2,4.1-2.8,11-2.8,11v910.1h12.5V679.5l0.2,0.1v903.7h30.8V682.6l0.2-0.1v900.9h12.5V671.2c0,0-0.5-4.2-1.9-7.6L1204.6,581.5z"/>
</g>
<g>
	<path fill="#3C2415" d="M2070.2,376.2c-83.1-83.1-193.5-128.8-311-128.8c-117.5,0-227.9,45.8-311,128.8
		c-63,63-104.5,141.8-120.9,227.4c-3.6,5-8.9,11.7-13.1,14c-4.2,2.3-12.6,3.8-21.3,4.8v-0.7v-1v-1.2h6v-10h-3.5v-11.9h3.5v-10h-6
		v-0.3v-1V585v-1.2v-1.3v-1v-1.3v-1.2v-1.3v-1v-1.3v-1.2v-1.3v-1v-1.3H1280v1v1.3v1v1.3v1.2v1.3v1v1.3v1.2v1.3v1v1.3v1.2v1.3v0.3h-6
		v10h3.5v11.9h-3.5v10h6v0.8v1.3v1v0.9c-7.9,0.5-14,0.7-14,0.7c-1.6,0-2.9,1.3-2.9,2.9v32.7c0,1.6,1.3,2.9,2.9,2.9h14v0.4v1.2v1.3v1
		v1.3v1.2v1.3v1v1.3v1.2v1.3v1v1.3v1.2v1.3v1v1.3v1.2v1.3v1v1.3v1.2v1.3v1v1.3v1.2v1.3v1v1.3v1.2v1.3v1v1.3v1.2v0.3h-14
		c-1.6,0-2.9,1.3-2.9,2.9v32.7c0,1.6,1.3,2.9,2.9,2.9c0,0,6,0.1,14,0.7v0.9v1v1.3v1.2h-6v5.7c-4.2,0.9-9.3,2.6-12.4,6
		c-6.3,6.8-6.5,20.1,1.5,16.3c8-3.8,16-16.6,21.3-16.1c0.9,0.1,1.6-0.1,2.1-0.5c0.5,0.4,1.2,0.6,2.1,0.5
		c5.3-0.5,13.3,12.3,21.3,16.1c8,3.8,7.8-9.5,1.5-16.3c-3.2-3.4-8.2-5.1-12.4-6v-5.7h-6v-1v-1.2v-1.1c8.7,1,17.1,2.5,21.3,4.8
		c3.5,1.9,7.9,7,11.3,11.5c15,89.5,57.2,172,122.7,237.5c83.1,83.1,193.5,128.8,311,128.8c117.5,0,227.9-45.8,311-128.8
		c83.1-83.1,128.8-193.5,128.8-311C2199,569.8,2153.3,459.3,2070.2,376.2z M1759.2,1059.1c-205,0-371.7-166.8-371.7-371.7
		s166.8-371.7,371.7-371.7c205,0,371.7,166.8,371.7,371.7S1964.1,1059.1,1759.2,1059.1z M2047.4,399.2
		c-77-77-179.4-119.4-288.2-119.4c-108.9,0-211.2,42.4-288.2,119.4c-50.4,50.4-86,111.8-104.6,178.7c18.5-67,54.1-128.4,104.6-178.8
		c77-77,179.4-119.4,288.2-119.4c108.9,0,211.2,42.4,288.2,119.4c77,77,119.4,179.4,119.4,288.2c0,0,0,0.1,0,0.1
		C2166.8,578.5,2124.4,476.1,2047.4,399.2z"/>
	<path fill="#3C2415" d="M1577.1,469.9c-45.4,45.4-75.2,102-87,163.7c-2.6,3.6-6.4,8.4-9.4,10.1c-3,1.6-9.1,2.7-15.3,3.5v-0.5v-0.7
		V645h4.4v-7.2h-2.6v-8.6h2.6v-7.2h-4.4v-0.2v-0.7v-1v-0.9v-1v-0.7v-1v-0.9v-1v-0.7l-9.2,0.7v0.7v1v0.9v1v0.7v1v0.9v1v0.2h-4.4v7.2
		h2.6v8.6h-2.6v7.2h4.4v0.6v1v0.7v0.6c-5.7,0.4-10,0.5-10,0.5c-1.2,0-2.1,1-2.1,2.1v23.5c0,1.2,1,2.1,2.1,2.1h10v0.3v0.9v1v0.7v1
		v0.9v1v0.7v1v0.9v1v0.7v1v0.9v1v0.7v1v0.9v1v0.7v1v0.9v1v0.7v1v0.9v1v0.7v1v0.9v1v0.7v1v0.9v0.2h-10c-1.2,0-2.1,1-2.1,2.1v23.5
		c0,1.2,1,2.1,2.1,2.1c0,0,4.3,0.1,10,0.5v0.7v0.7v1v0.9h-4.4v4.1c-3.1,0.6-6.7,1.8-8.9,4.3c-4.5,4.9-4.7,14.5,1.1,11.7
		c5.7-2.8,11.5-12,15.3-11.6c0.7,0.1,1.1-0.1,1.5-0.3c0.4,0.3,0.9,0.4,1.5,0.3c3.8-0.4,9.6,8.9,15.3,11.6c5.7,2.8,5.6-6.8,1.1-11.7
		c-2.3-2.5-5.9-3.7-8.9-4.3v-4.1h-4.4v-0.7v-0.9V735c6.2,0.7,12.3,1.8,15.3,3.5c2.5,1.4,5.7,5.1,8.2,8.3
		c10.8,64.4,41.2,123.8,88.3,170.9c59.8,59.8,139.3,92.7,223.9,92.7c84.6,0,164.1-32.9,223.9-92.7c59.8-59.8,92.7-139.3,92.7-223.9
		c0-84.6-32.9-164.1-92.7-223.9c-59.8-59.8-139.3-92.7-223.9-92.7C1716.4,377.1,1636.9,410.1,1577.1,469.9z M2068.5,693.9
		c0,147.5-120,267.6-267.6,267.6c-147.5,0-267.6-120-267.6-267.6s120-267.6,267.6-267.6C1948.5,426.3,2068.5,546.4,2068.5,693.9z"/>
	<path fill="#3C2415" d="M1625.4,655.2c-1.8,2.5-4.4,5.8-6.5,6.9c-2.1,1.1-6.2,1.9-10.5,2.4v-0.4v-0.5v-0.6h3v-4.9h-1.8v-5.9h1.8
		v-4.9h-3v-0.2v-0.5V646v-0.6v-0.7v-0.5v-0.7v-0.6v-0.7v-0.5v-0.7v-0.6v-0.7v-0.5v-0.7h-6.4v0.5v0.7v0.5v0.7v0.6v0.7v0.5v0.7v0.6
		v0.7v0.5v0.7v0.6v0.7v0.2h-3v4.9h1.8v5.9h-1.8v4.9h3v0.4v0.7v0.5v0.4c-3.9,0.3-6.9,0.3-6.9,0.3c-0.8,0-1.5,0.7-1.5,1.5V683
		c0,0.8,0.7,1.5,1.5,1.5h6.9v0.2v0.6v0.7v0.5v0.7v0.6v0.7v0.5v0.7v0.6v0.7v0.5v0.7v0.6v0.7v0.5v0.7v0.6v0.7v0.5v0.7v0.6v0.7v0.5v0.7
		v0.6v0.7v0.5v0.7v0.6v0.7v0.5v0.7v0.6v0.2h-6.9c-0.8,0-1.5,0.7-1.5,1.5v16.2c0,0.8,0.7,1.5,1.5,1.5c0,0,3,0.1,6.9,0.3v0.5v0.5v0.7
		v0.6h-3v2.8c-2.1,0.4-4.6,1.3-6.1,2.9c-3.1,3.4-3.2,9.9,0.7,8.1c3.9-1.9,7.9-8.2,10.5-8c0.4,0,0.8-0.1,1-0.2c0.3,0.2,0.6,0.3,1,0.2
		c2.6-0.2,6.6,6.1,10.5,8s3.9-4.7,0.7-8.1c-1.6-1.7-4-2.5-6.1-2.9v-2.8h-3V726v-0.6v-0.6c4.3,0.5,8.5,1.2,10.5,2.4
		c1.7,0.9,3.9,3.5,5.6,5.7c7.4,44.3,28.3,85,60.7,117.4c41.1,41.1,95.7,63.7,153.8,63.7c58.1,0,112.7-22.6,153.8-63.7
		c41.1-41.1,63.7-95.7,63.7-153.8c0-58.1-22.6-112.7-63.7-153.8c-41.1-41.1-95.7-63.7-153.8-63.7c-58.1,0-112.7,22.6-153.8,63.7
		C1654.1,573.9,1633.5,612.8,1625.4,655.2z M1839.1,880.5c-101.4,0-183.8-82.5-183.8-183.8s82.5-183.8,183.8-183.8
		s183.8,82.5,183.8,183.8S1940.4,880.5,1839.1,880.5z M1839.1,495c53.9,0,104.5,21,142.6,59c38.1,38.1,59,88.7,59,142.6c0,0,0,0,0,0
		c0-53.8-21-104.4-59-142.5C1943.5,516,1892.9,495,1839.1,495c-53.9,0.1-104.5,21.1-142.6,59.1c-25,25-42.6,55.4-51.8,88.5
		c9.2-33.2,26.8-63.6,51.8-88.6C1734.6,515.9,1785.2,495,1839.1,495z"/>
</g>
<path fill="#3C2415" d="M1110.5,446.5c0-2.1,0.9-19,0.2-23c0,0,0-0.1,0-0.1c-0.2-29.6-83.2-53.2-185.5-52.7
	c-102.3,0.5-185.1,25-184.9,54.6c0,1.1,0.1,2.1,0.3,3.1l-0.3,10c-0.3,1.2-0.3,8.8-0.3,10c0.1,12.5,14.8,23.8,39.5,32.8l1.2,238.9
	c-5.1,1.8-9.8,3.6-14.1,5.6c3.4-24.3,5.2-51.7,5.1-80.5c-0.2-102.3-24.4-185.1-54-185.1c-1.1,0-2.1,0.1-3.2,0.3l-10-0.3
	c-1.2-0.3-8.7-0.3-10-0.3c-12.5,0-23.9,14.7-32.9,39.4l-238.9,0.6c-3.6-10.5-7.6-19.3-12-26.3c17.7-8.5,27.8-18.4,27.6-28.8
	c0-1.2-0.2-8.8-0.4-10l-0.5-10c0.2-1,0.3-2.1,0.3-3.1c-0.5-29.6-83.7-52.3-186-50.8c-102.3,1.6-184.8,26.8-184.3,56.4
	c0,0.1,0,0.1,0,0.2c-0.6,4,0.6,20.9,0.7,23c0.2,12.3,14.8,23.5,39.2,32.2l3.7,242.6c-21.5,9.1-34,20-33.8,31.6c0,0.1,0,0.1,0,0.2
	c-0.6,4.1,0.6,20.8,0.7,23c0.5,29.6,83.7,52.3,186,50.8c33.1-0.5,64.1-3.5,90.9-8.3c3.6,2.6,7.3,4,11.1,3.9c2.1,0,18.9,0.9,23,0.3
	c0.1,0,0.1,0,0.2,0c8.8,0,17.1-7.4,24.4-20.3c10.4-4.3,18.8-9.1,24.7-14.1l224.6-0.5c9.1,24.2,20.5,38.6,32.9,38.6
	c2.1,0,19,0.9,23,0.3c0.1,0,0.1,0,0.2,0c11.4,0,22-12.4,30.6-33.4c26.6,20,94.2,34,173.3,33.6c102.3-0.5,185-25,184.9-54.5
	c0-2.1,0.9-18.9,0.2-23c0-0.1,0-0.1,0-0.2c-0.1-11.6-12.8-22.3-34.5-30.9l-1.3-242.6C1096.2,470.3,1110.6,458.9,1110.5,446.5z"/>
<g>
	<g>
		<g>
			<path fill="#BCBEC0" d="M1826.1,1335c-4.3-3.5-10.1-3.5-13,0l-105.3,139.9c-3.1,4.3-3.8,6.7-3.2,7.2c0.2,0.2,2,0.3,6.4-4.5
				l117.6-129.9C1831.5,1344.2,1830.4,1338.5,1826.1,1335z M1801.7,1364.5c-2.4-2-0.5-8.5,4.4-14.4c4.9-5.9,10.8-9.1,13.3-7
				c2.4,2,0.5,8.5-4.4,14.4C1810.1,1363.3,1804.1,1366.5,1801.7,1364.5z"/>
		</g>
		<g>
			<path fill="#A7A9AC" d="M1815,1357.4c-4.9,5.9-10.8,9.1-13.3,7l-97.1,117.6c0.2,0.2,2,0.3,6.4-4.5l117.6-129.9
				c2.9-3.5,1.8-9.3-2.5-12.8l-6.7,8.1C1821.8,1345.1,1819.8,1351.5,1815,1357.4z"/>
		</g>
	</g>
	<g>
		<g>
			<polygon fill="#BCBEC0" points="1624.9,1443.3 1617.2,1459.6 1616.7,1441.5 1649.6,1286 1657.7,1287.7 			"/>
		</g>
		<g>
			<polygon fill="#A7A9AC" points="1617.2,1459.6 1624.9,1443.3 1657.7,1287.7 1653.7,1286.8 			"/>
		</g>
		<g>
			<g>
				
					<ellipse transform="matrix(0.2065 -0.9785 0.9785 0.2065 64.57 2633.3206)" fill="#FF9724" cx="1655.8" cy="1276.9" rx="16.2" ry="16.2"/>
			</g>
			<g>
				<path fill="#F27520" d="M1671.6,1280.2c1.9-8.8-3.8-17.4-12.5-19.2l-6.7,31.7C1661.2,1294.6,1669.8,1289,1671.6,1280.2z"/>
			</g>
		</g>
	</g>
	<g>
		<g>
			<path fill="#BE1E2D" d="M1770.6,1567.6c8.1-14.6,12.6-30.7,12.6-47.5c0-67.1-70.9-121.5-158.5-121.5
				c-87.5,0-158.5,54.4-158.5,121.5c0,16.9,4.5,32.9,12.6,47.5H1770.6z"/>
		</g>
		<g>
			<path fill="#BE1E2D" d="M1768.3,1468.5c0.5,4.1,0.8,8.2,0.8,12.4c0,16.9-4.5,32.9-12.6,47.5h-289.9c1.2,13.8,5.5,26.9,12.2,39.1
				h291.7c8.1-14.6,12.6-30.7,12.6-47.5C1783.2,1501.6,1777.9,1484.2,1768.3,1468.5z"/>
		</g>
		<g>
			<path fill="#BCBEC0" d="M1793.2,1590.1c0,3.5-3.1,6.3-7,6.3H1466c-3.8,0-7-2.8-7-6.3v-40.6c0-3.5,3.1-6.3,7-6.3h320.2
				c3.8,0,7,2.8,7,6.3V1590.1z"/>
		</g>
		<g>
			<path fill="#A7A9AC" d="M1459,1569.8v20.3c0,3.5,3.1,6.3,7,6.3h320.2c3.8,0,7-2.8,7-6.3v-20.3H1459z"/>
		</g>
	</g>
	<g>
		<g>
			<g>
				<polygon fill="#BCBEC0" points="1577,1461.7 1577.1,1483 1567.4,1464 1523.4,1281.9 1532.9,1279.5 				"/>
			</g>
			<g>
				<polygon fill="#A7A9AC" points="1577.1,1483 1577,1461.7 1532.9,1279.5 1528.1,1280.7 				"/>
			</g>
			<g>
				<g>
					<path fill="#FF9724" d="M1543.9,1264.5c2.5,10.3-3.8,20.6-14.1,23.1c-10.3,2.5-20.6-3.8-23.1-14.1
						c-2.5-10.3,3.8-20.6,14.1-23.1C1531.1,1247.9,1541.4,1254.3,1543.9,1264.5z"/>
				</g>
				<g>
					<path fill="#F27520" d="M1543.9,1264.5c-2.5-10.3-12.8-16.6-23.1-14.1l9,37.2C1540.1,1285.1,1546.4,1274.8,1543.9,1264.5z"/>
				</g>
			</g>
		</g>
		<g>
			
				<ellipse transform="matrix(0.9718 -0.2357 0.2357 0.9718 -302.134 413.2353)" fill="#BE1E2D" cx="1577.1" cy="1470.1" rx="30" ry="26.7"/>
		</g>
		<g>
			<path fill="#BE1E2D" d="M1550.3,1462.7c-0.5,0-1-0.1-1.4-0.4c-1.5-0.8-2.1-2.7-1.3-4.2c4.5-8.4,12.7-14.6,22.5-16.9
				c10.5-2.5,21.5-0.3,29.4,6c1.3,1.1,1.5,3,0.5,4.3c-1.1,1.3-3,1.5-4.3,0.5c-6.4-5.1-15.4-6.9-24.1-4.8c-8.1,2-14.9,7-18.5,13.8
				C1552.5,1462.1,1551.4,1462.7,1550.3,1462.7z"/>
		</g>
	</g>
	<g>
		<g>
			<g>
				<path fill="#BCBEC0" d="M1416.8,1334c-4.3,3.5-5.5,9.2-2.7,12.8l115.5,131.6c3.6,3.9,5.8,5.1,6.4,4.6c0.2-0.1,0.7-1.9-3.1-7.2
					l-103.2-141.6C1427,1330.6,1421.1,1330.5,1416.8,1334z M1440.7,1363.8c-2.5,2-8.4-1.3-13.2-7.3c-4.8-6-6.7-12.4-4.2-14.4
					c2.5-2,8.4,1.3,13.2,7.2C1441.3,1355.4,1443.2,1361.9,1440.7,1363.8z"/>
			</g>
			<g>
				<path fill="#A7A9AC" d="M1436.5,1349.4c4.8,6,6.7,12.4,4.2,14.4l95.3,119.1c0.2-0.1,0.7-1.9-3.1-7.2l-103.2-141.6
					c-2.9-3.6-8.7-3.7-13-0.2l6.6,8.2C1425.8,1340.2,1431.7,1343.4,1436.5,1349.4z"/>
			</g>
		</g>
		<g>
			
				<ellipse transform="matrix(0.8602 -0.51 0.51 0.8602 -542.6302 993.7401)" fill="#BE1E2D" cx="1541.1" cy="1486.6" rx="30" ry="26.7"/>
		</g>
		<g>
			<path fill="#BE1E2D" d="M1512.7,1486.1c-0.2,0-0.5,0-0.7-0.1c-1.7-0.4-2.7-2.1-2.3-3.7c2.1-8.7,8-16.5,16.2-21.4
				c8.1-4.8,17.6-6.3,26.2-4.1c1.6,0.4,2.6,2.1,2.2,3.7c-0.4,1.7-2.1,2.6-3.7,2.2c-7-1.8-14.9-0.5-21.5,3.4
				c-6.8,4-11.7,10.4-13.4,17.5C1515.3,1485.2,1514.1,1486.1,1512.7,1486.1z"/>
		</g>
	</g>
	<g>
		<g>
			<g>
				<path fill="#BCBEC0" d="M1743.2,1260.5l-5.5-1.7c-5.1-1.6-10.5,1.3-12.1,6.4l-10.5,34.5c-1.4,4.6,0.8,9.5,5.1,11.5l-40.3,131.9
					l-1.2,18.8l9.5-16.3l40.3-131.9c4.7,0.7,9.2-2.1,10.6-6.7l10.5-34.5C1751.1,1267.4,1748.3,1262,1743.2,1260.5z M1734.5,1297.5
					c-1,3.1-3.5,5.1-5.8,4.5l-2.4-0.7c-2.2-0.7-3.2-3.8-2.3-6.9l6.5-21.3c1-3.1,3.5-5.1,5.8-4.5l2.4,0.7c2.2,0.7,3.2,3.8,2.3,6.9
					L1734.5,1297.5z"/>
			</g>
			<g>
				<path fill="#A7A9AC" d="M1743.2,1260.5l-2.8-0.8l-2.9,9.4l1.2,0.4c2.2,0.7,3.2,3.8,2.3,6.9l-6.5,21.3c-1,3.1-3.5,5.1-5.8,4.5
					l-1.2-0.4l-49,160.3l9.5-16.3l40.3-131.9c4.7,0.7,9.2-2.1,10.6-6.7l10.5-34.5C1751.1,1267.4,1748.3,1262,1743.2,1260.5z"/>
			</g>
		</g>
		<g>
			
				<ellipse transform="matrix(0.3744 -0.9273 0.9273 0.3744 -311.0014 2468.8391)" fill="#BE1E2D" cx="1674.1" cy="1464.9" rx="26.7" ry="28.1"/>
		</g>
		<g>
			<path fill="#BE1E2D" d="M1701,1461.6c-1.3,0-2.6-0.9-3-2.2c-2.2-7.4-7.7-13.4-15.1-16.4c-6.8-2.8-14.4-2.6-20.8,0.6
				c-1.5,0.7-3.4,0.1-4.1-1.4c-0.7-1.5-0.1-3.4,1.4-4.1c8-3.9,17.4-4.1,25.8-0.7c9.2,3.7,16,11.2,18.7,20.4c0.5,1.6-0.5,3.3-2.1,3.8
				C1701.5,1461.6,1701.2,1461.6,1701,1461.6z"/>
		</g>
	</g>
</g>
<g>
	<g>
		<g>
			<path fill="#A87C4F" d="M1089,732.3l-1.5,5.7l-9.3-0.1c-25.3-20.3-92.7-34.5-171.9-34.1c-72.8,0.4-135.6,13.1-164.7,31.1
				l-16.7-0.1l-0.4,12.9c-0.3,1.2-0.3,8.6-0.3,9.9c0.1,29.1,81.9,52.3,182.6,51.8c100.7-0.5,182.2-24.6,182-53.7
				C1088.9,753.4,1089.9,734.5,1089,732.3z"/>
		</g>
		<g>
			<path fill="#8E6138" d="M1089.1,732.8c0.1,29.1-81.4,53.2-182,53.7c-100.7,0.5-182.4-22.7-182.6-51.8
				c-0.2-29.1,81.3-53.2,182-53.7C1007.2,680.5,1089,703.7,1089.1,732.8z"/>
		</g>
		<g>
			<path fill="#EF8B8F" d="M1055.4,742.7c0,0-51,25.9-153.4,26.4c-102.3,0.5-134.5-24.9-134.5-24.9l-1.8-339.1l287.9-1.5
				L1055.4,742.7z"/>
		</g>
		<g>
			<path fill="#A87C4F" d="M1091.9,407.7l-1.5,5.7l-9.3-0.1c-25.3-20.3-92.7-34.5-171.9-34.1c-72.8,0.4-135.6,13.1-164.7,31.1
				l-16.7-0.2l-0.4,12.9c-0.3,1.2-0.3,8.6-0.3,9.9c0.2,29.1,81.9,52.3,182.6,51.8c100.7-0.5,182.2-24.6,182-53.7
				C1091.8,428.8,1092.8,409.9,1091.9,407.7z"/>
		</g>
		<g>
			<path fill="#8E6138" d="M1092.1,408.3c0.1,29.1-81.3,53.2-182,53.7c-100.7,0.5-182.4-22.7-182.6-51.8
				c-0.2-29.2,81.4-53.2,182-53.7C1010.2,355.9,1091.9,379.1,1092.1,408.3z"/>
		</g>
		<g>
			<path fill="#404041" d="M957.7,409c0,7.7-21.4,14-47.9,14.1c-26.5,0.2-48-6-48.1-13.7c0-7.6,21.4-14,47.9-14.1
				C936.2,395.2,957.7,401.3,957.7,409z"/>
		</g>
		<g>
			<defs>
				<path id="SVGID_1_" d="M1055.4,742.7c0,0-51,25.9-153.4,26.4c-102.3,0.5-134.5-24.9-134.5-24.9l-1.8-339.1l287.9-1.5
					L1055.4,742.7z"/>
			</defs>
			<clipPath id="SVGID_2_">
				<use xlink:href="#SVGID_1_"  overflow="visible"/>
			</clipPath>
			<g clip-path="url(#SVGID_2_)">
				<g>
					<g>
						<path fill="#BA4F63" d="M931.5,530.3c36.3-1.3,78.7-5.4,127.7-13.5l-0.9-5.2c-205.1,34.1-293.9-4.8-294.8-5.2l-2.2,4.8
							C762,511.5,814.7,534.6,931.5,530.3z"/>
					</g>
				</g>
			</g>
			<g clip-path="url(#SVGID_2_)">
				<g>
					<g>
						<path fill="#BA4F63" d="M931.2,550c36.3-0.3,78.8-3.1,128-9.9l-0.7-5.2c-206,28.4-293.7-13-294.5-13.5l-2.3,4.7
							C762.3,526.5,814.4,551.1,931.2,550z"/>
					</g>
				</g>
			</g>
			<g clip-path="url(#SVGID_2_)">
				<g>
					<g>
						<path fill="#BA4F63" d="M932.5,686.4c36.3-0.3,78.8-3.1,128-9.9l-0.7-5.2c-205.9,28.4-293.7-13.1-294.5-13.5l-2.3,4.7
							C763.6,662.9,815.7,687.4,932.5,686.4z"/>
					</g>
				</g>
			</g>
			<g clip-path="url(#SVGID_2_)">
				<g>
					<g>
						<path fill="#BA4F63" d="M933.2,753.9c36.3-0.3,78.8-3.1,128-9.9l-0.7-5.2c-205.7,28.3-293.7-13-294.5-13.5l-2.3,4.7
							C764.3,730.4,816.3,755,933.2,753.9z"/>
					</g>
				</g>
			</g>
			<g clip-path="url(#SVGID_2_)">
				<g>
					<g>
						<path fill="#BA4F63" d="M933,736.4c36.3-0.3,78.8-3.1,128-9.9l-0.7-5.2c-205.7,28.3-293.7-13.1-294.5-13.5l-2.3,4.7
							C764.1,712.8,816.2,737.4,933,736.4z"/>
					</g>
				</g>
			</g>
			<g clip-path="url(#SVGID_2_)">
				<g>
					<g>
						<path fill="#BA4F63" d="M932.3,706.6c36.3-0.3,78.8-3.1,128-9.9l-0.7-5.2c-205.6,28.3-293.7-13-294.5-13.5l-2.3,4.7
							C763.4,683.1,815.5,707.7,932.3,706.6z"/>
					</g>
				</g>
			</g>
			<g clip-path="url(#SVGID_2_)">
				<g>
					<g>
						<path fill="#BA4F63" d="M931.3,563.6c36.3-0.3,78.8-3.1,128-9.9l-0.7-5.2c-205.9,28.4-293.7-13-294.5-13.5l-2.3,4.7
							C762.5,540.1,814.6,564.7,931.3,563.6z"/>
					</g>
				</g>
			</g>
			<g clip-path="url(#SVGID_2_)">
				<g>
					<g>
						<path fill="#BA4F63" d="M931.6,588.1c36.3-0.3,78.8-3.1,128-9.9l-0.7-5.2c-205.7,28.3-293.7-13-294.5-13.5l-2.3,4.7
							C762.7,564.6,814.8,589.2,931.6,588.1z"/>
					</g>
				</g>
			</g>
			<g clip-path="url(#SVGID_2_)">
				<g>
					<g>
						<path fill="#BA4F63" d="M932.1,606.9c37-0.3,80.3-3.2,130-10l-0.7-5.2c-205.7,28.3-299.5-12.4-300.4-12.9l-2.2,4.8
							C759.5,584,814.6,608,932.1,606.9z"/>
					</g>
				</g>
			</g>
			<g clip-path="url(#SVGID_2_)">
				<g>
					<g>
						<path fill="#BA4F63" d="M928.4,625c36.3-0.3,78.8-3.1,128-9.9l-0.7-5.2c-205.6,28.3-293.7-13-294.5-13.5l-2.3,4.7
							C759.5,601.5,811.6,626.1,928.4,625z"/>
					</g>
				</g>
			</g>
			<g clip-path="url(#SVGID_2_)">
				<g>
					<g>
						<path fill="#BA4F63" d="M867.4,631.9c47.5-0.4,112.4-6.7,195.8-26.8l-1.2-5.1c-202.1,48.6-293.5,16.1-294.4,15.8l-1.8,4.9
							C766.3,620.9,798.9,632.5,867.4,631.9z"/>
					</g>
				</g>
			</g>
			<g clip-path="url(#SVGID_2_)">
				<g>
					<g>
						<path fill="#BA4F63" d="M925,504.6c36.3-0.3,78.8-3.1,128-9.9l-0.7-5.2c-205.6,28.3-293.7-13-294.5-13.5l-2.3,4.7
							C756.2,481,808.3,505.6,925,504.6z"/>
					</g>
				</g>
			</g>
			<g clip-path="url(#SVGID_2_)">
				<g>
					<g>
						<path fill="#BA4F63" d="M864.1,511.4c47.5-0.4,112.4-6.7,195.8-26.8l-1.2-5.1c-202.1,48.6-293.5,16.1-294.4,15.8l-1.8,4.9
							C762.9,500.4,795.5,512,864.1,511.4z"/>
					</g>
				</g>
			</g>
			<g clip-path="url(#SVGID_2_)">
				<g>
					<g>
						<path fill="#BA4F63" d="M864.8,705.2c47.6-0.4,112.4-6.7,195.8-26.8l-1.2-5.1c-201.8,48.6-293.5,16.1-294.4,15.8l-1.8,4.9
							C763.7,694.2,796.3,705.8,864.8,705.2z"/>
					</g>
				</g>
			</g>
			<g clip-path="url(#SVGID_2_)">
				<g>
					<g>
						<path fill="#BA4F63" d="M869.4,646.4c47.5-0.4,112.4-6.7,195.8-26.8l-1.2-5.1c-202.1,48.6-293.5,16.1-294.4,15.8l-1.8,4.9
							C768.2,635.4,800.8,647,869.4,646.4z"/>
					</g>
				</g>
			</g>
			<g clip-path="url(#SVGID_2_)">
				<g>
					<g>
						<path fill="#BA4F63" d="M868.7,673.2c47.5,2.4,112.6-0.2,197-15.3l-0.9-5.2c-204.6,36.8-293.9-1-294.8-1.4l-2.1,4.8
							C768.4,656.4,800.2,669.8,868.7,673.2z"/>
					</g>
				</g>
			</g>
			<g clip-path="url(#SVGID_2_)">
				<g>
					<g>
						<path fill="#BA4F63" d="M1037.2,580c6.8,0,13.8-0.2,20.9-0.4l-0.1-5.2c-207.5,5.5-290.4-45.3-291.3-45.8l-2.8,4.5
							C764.7,533.5,843.1,581.7,1037.2,580z"/>
					</g>
				</g>
			</g>
			<g clip-path="url(#SVGID_2_)">
				<g>
					<g>
						<path fill="#BA4F63" d="M1038.3,710.7c6.8-0.1,13.8-0.2,20.9-0.4l-0.1-5.3c-207.5,5.5-290.5-45.3-291.3-45.8l-2.8,4.5
							C765.8,664.2,844.2,712.5,1038.3,710.7z"/>
					</g>
				</g>
			</g>
			<g clip-path="url(#SVGID_2_)">
				<g>
					<g>
						<g>
							<path fill="#D86878" d="M893,504.8c-36.3-0.3-78.8-3.1-128-9.9l0.7-5.2c205.9,28.4,293.7-13,294.5-13.5l2.3,4.7
								C1061.9,481.2,1009.8,505.8,893,504.8z"/>
						</g>
					</g>
				</g>
				<g>
					<g>
						<g>
							<path fill="#D86878" d="M892.9,522.3c-36.3-0.3-78.8-3.1-128-9.9l0.7-5.2c206,28.4,293.7-13,294.5-13.5l2.3,4.7
								C1061.7,498.8,1009.7,523.4,892.9,522.3z"/>
						</g>
					</g>
				</g>
				<g>
					<g>
						<g>
							<path fill="#D86878" d="M891.6,662.7c-36.3-0.3-78.8-3.1-128-9.9l0.7-5.2c205.9,28.4,293.7-13.1,294.5-13.5l2.3,4.7
								C1060.5,639.1,1008.4,663.7,891.6,662.7z"/>
						</g>
					</g>
				</g>
				<g>
					<g>
						<g>
							<path fill="#D86878" d="M890.9,738.1c-36.3-0.3-78.8-3.1-128-9.9l0.7-5.2c205.7,28.3,293.7-13,294.5-13.5l2.3,4.7
								C1059.8,714.5,1007.7,739.1,890.9,738.1z"/>
						</g>
					</g>
				</g>
				<g>
					<g>
						<g>
							<path fill="#D86878" d="M891.1,720.5c-36.3-0.3-78.8-3.1-128-9.9l0.7-5.2c205.7,28.3,293.7-13.1,294.5-13.5l2.3,4.7
								C1060,697,1007.9,721.6,891.1,720.5z"/>
						</g>
					</g>
				</g>
				<g>
					<g>
						<g>
							<path fill="#D86878" d="M891.8,643.3c-36.3-0.3-78.8-3.1-128-9.9l0.7-5.2c205.6,28.3,293.7-13,294.5-13.5l2.3,4.7
								C1060.7,619.8,1008.6,644.4,891.8,643.3z"/>
						</g>
					</g>
				</g>
				<g>
					<g>
						<g>
							<path fill="#D86878" d="M892.7,539.8c-36.3-0.3-78.8-3.1-128-9.9l0.7-5.2c205.9,28.4,293.7-13,294.5-13.5l2.3,4.7
								C1061.6,516.3,1009.5,540.9,892.7,539.8z"/>
						</g>
					</g>
				</g>
				<g>
					<g>
						<g>
							<path fill="#D86878" d="M892.5,564.4c-36.3-0.3-78.8-3.1-128-9.9l0.7-5.2c205.7,28.3,293.7-13,294.5-13.5l2.3,4.7
								C1061.4,540.9,1009.3,565.4,892.5,564.4z"/>
						</g>
					</g>
				</g>
				<g>
					<g>
						<g>
							<path fill="#D86878" d="M892,583.2c-37-0.3-80.3-3.2-130-10l0.7-5.2c205.7,28.3,299.5-12.4,300.4-12.9l2.2,4.8
								C1064.6,560.2,1009.5,584.3,892,583.2z"/>
						</g>
					</g>
				</g>
				<g>
					<g>
						<g>
							<path fill="#D86878" d="M895.7,601.3c-36.3-0.3-78.8-3.1-128-9.9l0.7-5.2c205.6,28.3,293.7-13,294.5-13.5l2.3,4.7
								C1064.5,577.8,1012.5,602.3,895.7,601.3z"/>
						</g>
					</g>
				</g>
				<g>
					<g>
						<g>
							<path fill="#D86878" d="M956.6,603.4c-47.5-0.4-112.4-6.7-195.8-26.8l1.2-5.1c202.1,48.6,293.5,16.1,294.4,15.8l1.8,4.9
								C1057.8,592.4,1025.2,604,956.6,603.4z"/>
						</g>
					</g>
				</g>
				<g>
					<g>
						<g>
							<path fill="#D86878" d="M959.2,705.2c-47.6-0.4-112.4-6.7-195.8-26.8l1.2-5.1c201.8,48.6,293.5,16.1,294.4,15.8l1.8,4.9
								C1060.4,694.2,1027.8,705.8,959.2,705.2z"/>
						</g>
					</g>
				</g>
				<g>
					<g>
						<g>
							<path fill="#D86878" d="M954.7,622.7c-47.5-0.4-112.4-6.7-195.8-26.8l1.2-5.1c202.1,48.6,293.5,16.1,294.4,15.8l1.8,4.9
								C1055.9,611.7,1023.3,623.3,954.7,622.7z"/>
						</g>
					</g>
				</g>
				<g>
					<g>
						<g>
							<path fill="#D86878" d="M954.5,642c-47.5-0.4-112.4-6.7-195.8-26.8l1.2-5.1c202.1,48.6,293.5,16.2,294.4,15.8l1.8,4.9
								C1055.7,631,1023.1,642.6,954.5,642z"/>
						</g>
					</g>
				</g>
				<g>
					<g>
						<g>
							<path fill="#D86878" d="M786.9,564.1c-6.8,0-13.8-0.2-20.9-0.4l0.1-5.2c207.5,5.5,290.4-45.3,291.3-45.8l2.8,4.5
								C1059.4,517.7,981,565.9,786.9,564.1z"/>
						</g>
					</g>
				</g>
				<g>
					<g>
						<g>
							<path fill="#D86878" d="M785.8,687c-6.8-0.1-13.8-0.2-20.9-0.4l0.1-5.3c207.5,5.5,290.5-45.3,291.3-45.8l2.8,4.5
								C1058.3,640.5,979.9,688.7,785.8,687z"/>
						</g>
					</g>
				</g>
			</g>
		</g>
	</g>
	<g>
		<g>
			<path fill="#A87C4F" d="M382.1,805.1l-5.7-1.5l0.1-9.3c20.3-25.2,34.8-92.6,34.6-171.8c-0.2-72.8-12.7-135.6-30.6-164.8l0.2-16.7
				l-12.9-0.4c-1.2-0.3-8.6-0.3-9.8-0.3c-29.2,0.1-52.6,81.8-52.3,182.5c0.2,100.7,24.1,182.3,53.2,182.2
				C361,805,379.9,806,382.1,805.1z"/>
		</g>
		<g>
			<path fill="#8E6138" d="M381.6,805.3c-29.1,0.1-53-81.5-53.2-182.2c-0.2-100.7,23.2-182.4,52.4-182.4
				c29.1-0.1,53,81.5,53.2,182.2C434.2,723.5,410.7,805.2,381.6,805.3z"/>
		</g>
		<g>
			<path fill="#A3CCC9" d="M371.8,771.5c0,0-25.7-51.1-26-153.5c-0.2-102.3,25.3-134.4,25.3-134.4l339-0.8l0.7,287.9L371.8,771.5z"
				/>
		</g>
		<g>
			<path fill="#A87C4F" d="M706.6,808.9l-5.6-1.5l0.1-9.3c20.4-25.2,34.8-92.6,34.6-171.8c-0.2-72.8-12.7-135.6-30.6-164.8l0.2-16.7
				l-13-0.4c-1.2-0.3-8.6-0.3-9.8-0.3c-29.1,0.1-52.6,81.8-52.4,182.4c0.3,100.7,24.1,182.2,53.2,182.2
				C685.6,808.9,704.4,809.9,706.6,808.9z"/>
		</g>
		<g>
			<path fill="#8E6138" d="M706.1,809.1c-29.1,0.1-53-81.5-53.2-182.2c-0.3-100.7,23.2-182.4,52.3-182.4
				c29.2-0.1,53,81.5,53.2,182.2C758.7,727.4,735.3,809,706.1,809.1z"/>
		</g>
		<g>
			<path fill="#404041" d="M705.8,674.8c-7.7,0-13.9-21.4-14-47.9c0-26.5,6.1-48,13.8-48c7.7,0,13.9,21.4,14,48
				C719.6,653.3,713.5,674.8,705.8,674.8z"/>
		</g>
		<g>
			<defs>
				<path id="SVGID_3_" d="M371.8,771.5c0,0-25.7-51.1-26-153.5c-0.2-102.3,25.3-134.4,25.3-134.4l339-0.8l0.7,287.9L371.8,771.5z"
					/>
			</defs>
			<clipPath id="SVGID_4_">
				<use xlink:href="#SVGID_3_"  overflow="visible"/>
			</clipPath>
			<g clip-path="url(#SVGID_4_)">
				<g>
					<g>
						<path fill="#4D847C" d="M615,647.4c0.4,36.3,3.4,78.8,10.3,128l5.2-0.7c-28.9-205.9,12.2-293.7,12.6-294.6l-4.8-2.3
							C638,478.4,613.6,530.6,615,647.4z"/>
					</g>
				</g>
				<g>
					<g>
						<path fill="#4D847C" d="M597.4,647.6c0.4,36.3,3.4,78.8,10.3,128l5.2-0.7c-29-205.9,12.2-293.7,12.6-294.6l-4.8-2.3
							C620.4,478.6,596,530.8,597.4,647.6z"/>
					</g>
				</g>
				<g>
					<g>
						<path fill="#4D847C" d="M457.1,649.2c0.4,36.3,3.4,78.8,10.3,128l5.2-0.7c-29-205.9,12.2-293.7,12.6-294.6l-4.8-2.3
							C480.1,480.3,455.7,532.4,457.1,649.2z"/>
					</g>
				</g>
				<g>
					<g>
						<path fill="#4D847C" d="M389.5,650.1c0.4,36.3,3.3,78.8,10.3,128l5.2-0.7c-28.9-205.6,12.2-293.7,12.6-294.6l-4.7-2.3
							C412.6,481.2,388.2,533.3,389.5,650.1z"/>
					</g>
				</g>
				<g>
					<g>
						<path fill="#4D847C" d="M415,649.9c0.4,36.3,3.3,78.8,10.3,128l5.2-0.7c-28.9-205.6,12.2-293.7,12.6-294.6l-4.7-2.3
							C438,481,413.6,533.1,415,649.9z"/>
					</g>
				</g>
				<g>
					<g>
						<path fill="#4D847C" d="M476.4,649c0.4,36.3,3.3,78.8,10.3,128l5.2-0.7c-28.9-205.6,12.2-293.7,12.6-294.6l-4.7-2.3
							C499.4,480.1,475,532.2,476.4,649z"/>
					</g>
				</g>
				<g>
					<g>
						<path fill="#4D847C" d="M434.6,649c0.4,36.3,3.3,78.8,10.3,128l5.2-0.7c-28.9-205.6,12.2-293.7,12.6-294.6l-4.7-2.3
							C457.6,480.1,433.2,532.2,434.6,649z"/>
					</g>
				</g>
				<g>
					<g>
						<path fill="#4D847C" d="M579.8,647.8c0.4,36.3,3.4,78.8,10.3,128l5.2-0.7c-29-205.9,12.2-293.7,12.6-294.6l-4.8-2.3
							C602.9,478.8,578.5,531,579.8,647.8z"/>
					</g>
				</g>
				<g>
					<g>
						<path fill="#4D847C" d="M555.3,648c0.4,36.3,3.3,78.8,10.2,128l5.2-0.7c-28.9-205.6,12.2-293.7,12.6-294.6l-4.7-2.3
							C578.3,479.1,553.9,531.3,555.3,648z"/>
					</g>
				</g>
				<g>
					<g>
						<path fill="#4D847C" d="M536.5,648.6c0.4,37.1,3.4,80.3,10.4,130l5.2-0.7c-28.9-205.6,11.6-299.5,12-300.5l-4.8-2.2
							C559,476,535.1,531.1,536.5,648.6z"/>
					</g>
				</g>
				<g>
					<g>
						<path fill="#4D847C" d="M518.4,645c0.4,36.3,3.3,78.8,10.3,128l5.2-0.7c-28.9-205.5,12.2-293.7,12.6-294.6l-4.7-2.3
							C541.5,476.1,517,528.2,518.4,645z"/>
					</g>
				</g>
				<g>
					<g>
						<path fill="#4D847C" d="M508.2,584c0.6,47.5,7,112.3,27.4,195.7l5.1-1.2c-49.2-202-17-293.5-16.7-294.4l-4.9-1.8
							C518.9,482.8,507.4,515.5,508.2,584z"/>
					</g>
				</g>
				<g>
					<g>
						<path fill="#4D847C" d="M398.5,581.7c0.6,47.5,7.1,112.4,27.4,195.7l5.1-1.2c-49.2-201.7-17-293.5-16.7-294.4l-4.9-1.8
							C409.2,480.5,397.7,513.2,398.5,581.7z"/>
					</g>
				</g>
				<g>
					<g>
						<path fill="#4D847C" d="M496.1,582.7c-2.6,47.5-0.5,112.6,14.3,197.1l5.2-0.9c-35.6-204.8,2.6-293.9,3-294.8l-4.8-2.1
							C513.5,482.4,499.8,514.2,496.1,582.7z"/>
					</g>
				</g>
				<g>
					<g>
						<path fill="#4D847C" d="M450.7,586.2c0.6,47.5,7.1,112.4,27.4,195.7l5.1-1.2c-49.2-202-17-293.5-16.6-294.4l-5-1.8
							C461.4,485,449.9,517.7,450.7,586.2z"/>
					</g>
				</g>
				<g>
					<g>
						<path fill="#4D847C" d="M563.8,753.7c0.1,6.8,0.2,13.8,0.4,20.9l5.2-0.2c-6.1-207.5,44.4-290.6,44.9-291.4l-4.5-2.8
							C609.5,481,561.5,559.6,563.8,753.7z"/>
					</g>
				</g>
				<g>
					<g>
						<path fill="#4D847C" d="M381.2,757.1c0.8,6.8,1.7,13.7,2.7,20.7l5.2-0.7c-28.4-205.7,12.8-293.7,13.2-294.5l-4.7-2.3
							C397.2,481.1,357.9,564.4,381.2,757.1z"/>
					</g>
				</g>
			</g>
			<g clip-path="url(#SVGID_4_)">
				<g>
					<g>
						<path fill="#679E98" d="M568.9,609.6c0.4-36.3,3.4-78.8,10.3-128l5.2,0.7c-29,205.9,12.2,293.7,12.6,294.6l-4.8,2.3
							C592,778.5,567.5,726.4,568.9,609.6z"/>
					</g>
				</g>
				<g>
					<g>
						<path fill="#679E98" d="M428.6,607.9c0.4-36.3,3.4-78.8,10.3-128l5.2,0.7c-29,205.9,12.2,293.7,12.6,294.6l-4.8,2.3
							C451.6,776.9,427.2,724.7,428.6,607.9z"/>
					</g>
				</g>
				<g>
					<g>
						<path fill="#679E98" d="M369,607c0.4-36.3,3.3-78.8,10.3-128l5.2,0.7c-28.9,205.6,12.2,293.7,12.6,294.6l-4.7,2.3
							C392,776,367.6,723.8,369,607z"/>
					</g>
				</g>
				<g>
					<g>
						<path fill="#679E98" d="M386.5,607.3c0.4-36.3,3.3-78.8,10.3-128l5.2,0.7c-28.9,205.6,12.2,293.7,12.6,294.6l-4.7,2.3
							C409.6,776.2,385.1,724.1,386.5,607.3z"/>
					</g>
				</g>
				<g>
					<g>
						<path fill="#679E98" d="M447.9,608.2c0.4-36.3,3.3-78.8,10.3-128l5.2,0.7c-28.9,205.6,12.2,293.7,12.6,294.6l-4.7,2.3
							C470.9,777.1,446.5,725,447.9,608.2z"/>
					</g>
				</g>
				<g>
					<g>
						<path fill="#679E98" d="M406.1,608.2c0.4-36.3,3.3-78.8,10.3-128l5.2,0.7c-28.9,205.6,12.2,293.7,12.6,294.6l-4.7,2.3
							C429.1,777.1,404.7,725,406.1,608.2z"/>
					</g>
				</g>
				<g>
					<g>
						<path fill="#679E98" d="M551.4,609.4c0.4-36.3,3.4-78.8,10.3-128l5.2,0.7c-29,205.9,12.2,293.7,12.6,294.6l-4.8,2.3
							C574.4,778.3,550,726.2,551.4,609.4z"/>
					</g>
				</g>
				<g>
					<g>
						<path fill="#679E98" d="M618.7,606.7c1.4-36.3,5.5-78.7,13.8-127.7l5.2,0.9c-34.6,205,4.1,293.9,4.6,294.8l-4.8,2.2
							C637.1,776.2,614.1,723.4,618.7,606.7z"/>
					</g>
				</g>
				<g>
					<g>
						<path fill="#679E98" d="M601.1,606c1.4-36.3,5.5-78.7,13.8-127.6l5.2,0.9c-34.6,205,4.1,293.9,4.6,294.8l-4.8,2.1
							C619.5,775.5,596.6,722.7,601.1,606z"/>
					</g>
				</g>
				<g>
					<g>
						<path fill="#679E98" d="M583.6,605.4c1.4-36.3,5.6-78.7,13.8-127.6l5.2,0.9c-34.6,205,4.1,293.9,4.6,294.8l-4.8,2.2
							C602,774.9,579,722.1,583.6,605.4z"/>
					</g>
				</g>
				<g>
					<g>
						<path fill="#679E98" d="M526.8,609.1c0.4-36.3,3.3-78.8,10.2-128l5.2,0.7c-28.9,205.6,12.2,293.7,12.6,294.6l-4.7,2.3
							C549.9,778.1,525.4,725.9,526.8,609.1z"/>
					</g>
				</g>
				<g>
					<g>
						<path fill="#679E98" d="M508,608.6c0.4-37.1,3.4-80.3,10.4-130l5.2,0.7c-28.9,205.6,11.6,299.5,12,300.5l-4.8,2.2
							C530.5,781.2,506.6,726.1,508,608.6z"/>
					</g>
				</g>
				<g>
					<g>
						<path fill="#679E98" d="M489.9,612.2c0.4-36.3,3.3-78.8,10.3-128l5.2,0.7c-28.9,205.5,12.2,293.7,12.6,294.6l-4.7,2.3
							C513,781.1,488.6,729,489.9,612.2z"/>
					</g>
				</g>
				<g>
					<g>
						<path fill="#679E98" d="M487.7,673.1c0.6-47.5,7-112.3,27.4-195.7l5.1,1.2c-49.2,202-17,293.5-16.7,294.4l-4.9,1.8
							C498.3,774.3,486.8,741.7,487.7,673.1z"/>
					</g>
				</g>
				<g>
					<g>
						<path fill="#679E98" d="M401.7,675.5c0.6-47.5,7.1-112.4,27.4-195.7l5.1,1.2c-49.2,201.7-17,293.5-16.7,294.4l-4.9,1.8
							C412.4,776.6,400.9,744,401.7,675.5z"/>
					</g>
				</g>
				<g>
					<g>
						<path fill="#679E98" d="M468.4,671.2c0.6-47.5,7-112.4,27.4-195.7l5.1,1.2c-49.2,202-17,293.5-16.6,294.4l-4.9,1.8
							C479.1,772.4,467.6,739.7,468.4,671.2z"/>
					</g>
				</g>
				<g>
					<g>
						<path fill="#679E98" d="M449.1,671c0.6-47.5,7.1-112.4,27.4-195.7l5.1,1.2c-49.2,202-17,293.5-16.6,294.4l-5,1.8
							C459.8,772.1,448.3,739.5,449.1,671z"/>
					</g>
				</g>
				<g>
					<g>
						<path fill="#679E98" d="M527.4,503.5c0.1-6.8,0.2-13.8,0.4-20.9l5.2,0.2C527,690.3,577.5,773.4,578,774.2l-4.5,2.8
							C573.1,776.2,525.1,697.6,527.4,503.5z"/>
					</g>
				</g>
				<g>
					<g>
						<path fill="#679E98" d="M587.3,504.1c0.1-6.8,0.2-13.8,0.4-20.9l5.3,0.2c-6.1,207.5,44.4,290.6,45,291.4l-4.5,2.8
							C633,776.8,585,698.2,587.3,504.1z"/>
					</g>
				</g>
			</g>
		</g>
	</g>
	<g>
		<g>
			<path fill="#A87C4F" d="M74.8,736l1.6,5.6l9.3-0.3c24.9-20.8,92-36.4,171.1-37.6c72.8-1.1,135.8,10.3,165.3,27.7l16.7-0.5
				l0.6,12.9c0.3,1.2,0.4,8.6,0.5,9.8c0.4,29.1-80.8,54-181.5,55.6c-100.7,1.5-182.6-20.8-183.1-50C75.3,757,73.9,738.2,74.8,736z"
				/>
		</g>
		<g>
			<path fill="#8E6138" d="M74.6,736.5c0.5,29.1,82.4,51.5,183.1,50c100.7-1.5,181.9-26.4,181.5-55.6c-0.4-29.1-82.4-51.5-183.1-50
				C155.4,682.5,74.2,707.4,74.6,736.5z"/>
		</g>
		<g>
			<path fill="#F15A29" d="M108.6,745.7c0,0,51.5,24.8,153.9,23.2c102.3-1.6,133.9-27.7,133.9-27.7l-5.2-339l-287.8,4.4L108.6,745.7
				z"/>
		</g>
		<g>
			<path fill="#A87C4F" d="M65.2,411.6l1.6,5.6l9.3-0.3c24.9-20.8,92-36.4,171.1-37.6C320,378.2,383,389.6,412.5,407l16.7-0.5
				l0.7,12.9c0.3,1.2,0.4,8.6,0.4,9.8c0.5,29.1-80.8,54-181.5,55.6c-100.7,1.6-182.6-20.8-183.1-50
				C65.7,432.6,64.3,413.8,65.2,411.6z"/>
		</g>
		<g>
			<path fill="#8E6138" d="M65.1,412.1c0.5,29.1,82.4,51.5,183.1,50c100.7-1.5,181.9-26.4,181.5-55.6c-0.4-29.2-82.4-51.5-183.1-50
				C145.9,358.1,64.6,382.9,65.1,412.1z"/>
		</g>
		<g>
			<path fill="#404041" d="M199.4,410c0.1,7.6,21.7,13.5,48.2,13.1c26.5-0.4,47.9-6.9,47.8-14.6c-0.1-7.7-21.7-13.5-48.2-13.2
				C220.6,395.8,199.3,402.3,199.4,410z"/>
		</g>
		<g>
			<defs>
				<path id="SVGID_5_" d="M108.6,745.7c0,0,51.5,24.8,153.9,23.2c102.3-1.6,133.9-27.7,133.9-27.7l-5.2-339l-287.8,4.4L108.6,745.7
					z"/>
			</defs>
			<clipPath id="SVGID_6_">
				<use xlink:href="#SVGID_5_"  overflow="visible"/>
			</clipPath>
			<g clip-path="url(#SVGID_6_)">
				<path fill="#FBB040" d="M255.9,528.6c98.9,0,143.4-19.9,145.9-21.1l-3.4-7.3c-0.9,0.4-89.5,39.8-294,7.3l-1.3,7.9
					C164.1,525.1,214.7,528.6,255.9,528.6z"/>
			</g>
			<g clip-path="url(#SVGID_6_)">
				<path fill="#FBB040" d="M255.4,546.1c98.9,0,143.4-19.9,145.9-21.1l-3.4-7.3c-0.9,0.4-89.5,39.7-294,7.3l-1.3,7.9
					C163.6,542.7,214.2,546.1,255.4,546.1z"/>
			</g>
			<g clip-path="url(#SVGID_6_)">
				<path fill="#FBB040" d="M250.5,702.4c98.8,4.8,144.2-12.8,146.8-13.9l-3-7.4c-0.9,0.4-91.3,35.3-294-7l-1.6,7.8
					C159.1,694.4,209.4,700.4,250.5,702.4z"/>
			</g>
			<g clip-path="url(#SVGID_6_)">
				<path fill="#FBB040" d="M249,761.8c98.9,0,143.3-19.9,145.9-21l-3.4-7.3c-0.9,0.4-89.5,39.7-294,7.3l-1.3,7.9
					C157.3,758.3,207.9,761.8,249,761.8z"/>
			</g>
			<g clip-path="url(#SVGID_6_)">
				<path fill="#FBB040" d="M249.5,744.3c98.9,0,143.4-19.9,146-21.1l-3.4-7.3c-0.9,0.4-89.5,39.7-294,7.3l-1.3,7.9
					C157.8,740.8,208.3,744.3,249.5,744.3z"/>
			</g>
			<g clip-path="url(#SVGID_6_)">
				<path fill="#FBB040" d="M251.8,682.9c98.9,0,143.3-19.9,145.9-21l-3.4-7.3c-0.9,0.4-89.5,39.7-294,7.3l-1.3,7.9
					C160.1,679.5,210.7,682.9,251.8,682.9z"/>
			</g>
			<g clip-path="url(#SVGID_6_)">
				<path fill="#FBB040" d="M254.8,563.6c98.9,0,143.4-19.9,145.9-21.1l-3.4-7.3c-0.9,0.4-89.5,39.7-294,7.3l-1.3,7.9
					C163.1,560.2,213.7,563.6,254.8,563.6z"/>
			</g>
			<g clip-path="url(#SVGID_6_)">
				<path fill="#FBB040" d="M254.1,588.2c98.9,0,143.4-19.9,145.9-21.1l-3.4-7.3c-0.9,0.4-89.5,39.8-294,7.3l-1.3,7.9
					C162.4,584.7,213,588.2,254.1,588.2z"/>
			</g>
			<g clip-path="url(#SVGID_6_)">
				<path fill="#FBB040" d="M254.2,607c99.3,0,146-19.2,148.7-20.4l-3.1-7.4c-0.9,0.4-95.3,39.1-299.9,6.6l-1.3,7.9
					C160.3,603.5,212,607,254.2,607z"/>
			</g>
			<g clip-path="url(#SVGID_6_)">
				<path fill="#FBB040" d="M256.6,625.1c98.9,0,143.3-19.9,145.9-21l-3.4-7.3c-0.9,0.4-89.5,39.7-294,7.3l-1.3,7.9
					C164.8,621.7,215.4,625.1,256.6,625.1z"/>
			</g>
			<g clip-path="url(#SVGID_6_)">
				<path fill="#FBB040" d="M256.6,511.7c98.9,0,143.3-19.9,145.9-21l-3.4-7.3c-0.9,0.4-89.5,39.7-294,7.3l-1.3,7.9
					C164.8,508.2,215.4,511.7,256.6,511.7z"/>
			</g>
			<g clip-path="url(#SVGID_6_)">
				<path fill="#FBB040" d="M309.9,652.2c56.1,0,83.3-9,85.3-9.7l-2.6-7.6c-0.9,0.3-93,30.7-293.2-21.9l-2,7.7
					C191.3,645.5,261.4,652.2,309.9,652.2z"/>
			</g>
			<g clip-path="url(#SVGID_6_)">
				<path fill="#FBB040" d="M310.4,730.3c56.1,0,83.3-9,85.3-9.7l-2.6-7.6c-0.9,0.3-93,30.7-293.2-21.9l-2,7.7
					C191.9,723.6,261.9,730.3,310.4,730.3z"/>
			</g>
			<g clip-path="url(#SVGID_6_)">
				<path fill="#FBB040" d="M307.5,647.7c56.1,0,83.3-9,85.3-9.7l-2.6-7.6c-0.9,0.3-93,30.7-293.2-21.9l-2,7.7
					C189,641,259.1,647.7,307.5,647.7z"/>
			</g>
			<g clip-path="url(#SVGID_6_)">
				<path fill="#FBB040" d="M307,667c56.1,0,83.2-9,85.3-9.7l-2.6-7.6c-0.9,0.3-93,30.7-293.2-21.9l-2,7.7
					C188.5,660.3,258.6,667,307,667z"/>
			</g>
			<g clip-path="url(#SVGID_6_)">
				<path fill="#FBB040" d="M157.7,585.7c169.5,0,238.1-40.2,241.2-42.1l-4.1-6.8c-0.8,0.5-84.6,49.3-291.4,39.6l-0.4,8
					C122.2,585.3,140.5,585.7,157.7,585.7z"/>
			</g>
			<g clip-path="url(#SVGID_6_)">
				<path fill="#FBB040" d="M157.7,505c169.5,0,238.1-40.2,241.2-42.1l-4.1-6.8c-0.8,0.5-84.6,49.3-291.4,39.6l-0.4,8
					C122.2,504.6,140.5,505,157.7,505z"/>
			</g>
			<g clip-path="url(#SVGID_6_)">
				<path fill="#FBB040" d="M157.7,535.9c169.5,0,238.1-40.2,241.2-42.1l-4.1-6.8c-0.8,0.5-84.6,49.3-291.4,39.6l-0.4,8
					C122.2,535.5,140.5,535.9,157.7,535.9z"/>
			</g>
			<g clip-path="url(#SVGID_6_)">
				<path fill="#FBB040" d="M154,708.5c169.5,0,238.1-40.2,241.2-42.1l-4.1-6.8c-0.8,0.5-84.6,49.3-291.4,39.6l-0.4,8
					C118.6,708.1,136.8,708.5,154,708.5z"/>
			</g>
			<g clip-path="url(#SVGID_6_)">
				<path fill="#F7941D" d="M241.4,506.4c-98.9,0-143.4-19.9-145.9-21.1l3.4-7.3c0.9,0.4,89.5,39.8,294,7.3l1.3,7.9
					C333.1,503,282.5,506.4,241.4,506.4z"/>
			</g>
			<g clip-path="url(#SVGID_6_)">
				<path fill="#F7941D" d="M241.9,523.9c-98.9,0-143.4-19.9-145.9-21.1l3.4-7.3c0.9,0.4,89.5,39.7,294,7.3l1.3,7.9
					C333.6,520.5,283,523.9,241.9,523.9z"/>
			</g>
			<g clip-path="url(#SVGID_6_)">
				<path fill="#F7941D" d="M246,664.2c-98.9,0-143.4-19.9-145.9-21.1l3.4-7.3c0.9,0.4,89.5,39.8,293.9,7.3l1.3,7.9
					C337.8,660.8,287.2,664.2,246,664.2z"/>
			</g>
			<g clip-path="url(#SVGID_6_)">
				<path fill="#F7941D" d="M248.2,739.6c-98.9,0-143.3-19.9-145.9-21l3.4-7.3c0.9,0.4,89.5,39.7,294,7.3l1.3,7.9
					C340,736.2,289.4,739.6,248.2,739.6z"/>
			</g>
			<g clip-path="url(#SVGID_6_)">
				<path fill="#F7941D" d="M248.2,756.5c-98.9,0-143.3-19.9-145.9-21l3.4-7.3c0.9,0.4,89.5,39.7,294,7.3l1.3,7.9
					C340,753.1,289.4,756.5,248.2,756.5z"/>
			</g>
			<g clip-path="url(#SVGID_6_)">
				<path fill="#F7941D" d="M247.8,722.1c-98.9,0-143.4-19.9-146-21.1l3.4-7.3c0.9,0.4,89.5,39.7,294,7.3l1.3,7.9
					C339.5,718.7,288.9,722.1,247.8,722.1z"/>
			</g>
			<g clip-path="url(#SVGID_6_)">
				<path fill="#F7941D" d="M245.4,644.9c-98.9,0-143.3-19.9-145.9-21l3.4-7.3c0.9,0.4,89.5,39.7,294,7.3l1.3,7.9
					C337.2,641.5,286.6,644.9,245.4,644.9z"/>
			</g>
			<g clip-path="url(#SVGID_6_)">
				<path fill="#F7941D" d="M242.4,541.5c-98.9,0-143.4-19.9-145.9-21.1l3.4-7.3c0.9,0.4,89.5,39.7,294,7.3l1.3,7.9
					C334.2,538,283.6,541.5,242.4,541.5z"/>
			</g>
			<g clip-path="url(#SVGID_6_)">
				<path fill="#F7941D" d="M243.1,566c-98.9,0-143.4-19.9-145.9-21.1l3.4-7.3c0.9,0.4,89.5,39.8,294,7.3l1.3,7.9
					C334.9,562.6,284.3,566,243.1,566z"/>
			</g>
			<g clip-path="url(#SVGID_6_)">
				<path fill="#F7941D" d="M243.1,584.8c-99.3,0-146-19.2-148.7-20.4l3.1-7.4c0.9,0.4,95.3,39.1,299.9,6.6l1.3,7.9
					C336.9,581.3,285.2,584.8,243.1,584.8z"/>
			</g>
			<g clip-path="url(#SVGID_6_)">
				<path fill="#F7941D" d="M240.7,603c-98.9,0-143.3-19.9-145.9-21l3.4-7.3c0.9,0.4,89.5,39.7,294,7.3l1.3,7.9
					C332.4,599.5,281.8,603,240.7,603z"/>
			</g>
			<g clip-path="url(#SVGID_6_)">
				<path fill="#F7941D" d="M187.4,606.3c-56.1,0-83.3-9-85.3-9.7l2.6-7.6c0.9,0.3,93,30.7,293.2-21.9l2,7.7
					C305.9,599.6,235.8,606.3,187.4,606.3z"/>
			</g>
			<g clip-path="url(#SVGID_6_)">
				<path fill="#F7941D" d="M186.9,708.1c-56.1,0-83.3-9-85.3-9.7l2.6-7.6c0.9,0.3,93,30.7,293.2-21.9l2,7.7
					C305.4,701.4,235.3,708.1,186.9,708.1z"/>
			</g>
			<g clip-path="url(#SVGID_6_)">
				<path fill="#F7941D" d="M189.7,625.6c-56.1,0-83.3-9-85.3-9.7l2.6-7.6c0.9,0.3,93,30.7,293.2-21.9l2,7.7
					C308.2,618.8,238.2,625.6,189.7,625.6z"/>
			</g>
			<g clip-path="url(#SVGID_6_)">
				<path fill="#F7941D" d="M188.1,690.4c-56.1,0-83.3-9-85.3-9.7l2.6-7.6c0.9,0.3,93,30.7,293.2-21.9l2,7.7
					C306.6,683.7,236.6,690.4,188.1,690.4z"/>
			</g>
			<g clip-path="url(#SVGID_6_)">
				<path fill="#F7941D" d="M190.2,644.9c-56.1,0-83.2-9-85.3-9.7l2.6-7.6c0.9,0.3,93,30.7,293.2-21.9l2,7.7
					C308.8,638.1,238.7,644.9,190.2,644.9z"/>
			</g>
			<g clip-path="url(#SVGID_6_)">
				<path fill="#F7941D" d="M339.6,563.6c-169.5,0-238.1-40.2-241.2-42.1l4.1-6.8c0.8,0.5,84.6,49.3,291.4,39.6l0.4,8
					C375,563.1,356.8,563.6,339.6,563.6z"/>
			</g>
			<g clip-path="url(#SVGID_6_)">
				<path fill="#F7941D" d="M343.2,686.3c-169.5,0-238.1-40.2-241.2-42.1l4.1-6.8c0.8,0.5,84.6,49.3,291.4,39.6l0.4,8
					C378.6,685.9,360.4,686.3,343.2,686.3z"/>
			</g>
		</g>
	</g>
</g>
<g>
	<g>
		<g>
			<g>
				<g>
					<g>
						<path fill="#BCBEC0" d="M511.9,1469.3c-5.3-16.2-14.9-30-27.8-39.9l21.7-28.6c-17.3-16.4-32.1-32.9-32.1-32.9l-17.6,47.9
							c-10.1-2.6-20.5-3.2-30.9-1.7c-19.7,2.8-38.5,12.7-52.9,28.2c-7.4,7.9-13.4,17-17.8,27c-9.8,21.9-11.2,46.1-4,68
							c7.4,22.5,22.9,40.1,43.6,49.3c13.4,6,28.3,8,43,6c19.7-2.7,38.5-12.7,52.9-28.2c7.4-7.9,13.4-17,17.8-27
							C517.6,1515.4,519,1491.3,511.9,1469.3L511.9,1469.3z M480.2,1479.7c4.6,14.1,3.6,29.7-2.8,44.1c-3,6.6-6.9,12.6-11.8,17.9
							c-9.1,9.8-20.8,16.1-33,17.8c-8.7,1.2-17,0.1-24.8-3.4c-12-5.4-21.1-15.7-25.5-29.2c-4.6-14.1-3.6-29.7,2.8-44.1
							c3-6.6,6.9-12.6,11.8-17.9c9.1-9.8,20.8-16.1,33-17.8c8.7-1.2,17.1-0.1,24.9,3.4C466.7,1455.9,475.8,1466.2,480.2,1479.7
							L480.2,1479.7z M480.2,1479.7"/>
					</g>
					<g>
						<g>
							<path fill="#BCBEC0" d="M364.7,1536.6c-7.2-21.9-5.7-46.1,4-68c4.4-10,10.4-19,17.8-27c14.4-15.4,33.1-25.4,52.9-28.2
								c0,0,0.1,0,0.1,0c-4.7-0.2-9.5,0-14.3,0.7c-19.7,2.7-38.5,12.7-52.9,28.2c-7.4,7.9-13.4,17-17.8,27c-9.8,21.9-11.2,46.1-4,68
								c7.4,22.5,22.9,40.1,43.6,49.3c13.4,5.9,28.2,8,42.9,6c-9.9-0.4-19.6-2.6-28.7-6.6C387.6,1576.6,372.1,1559.1,364.7,1536.6z"
								/>
						</g>
						<g>
							<path fill="#BCBEC0" d="M501.1,1531.2c-4.4,10-10.4,19-17.8,26.9c-14.4,15.4-33.1,25.4-52.9,28.2c-14.7,2-29.6,0-43-6
								c-6.6-2.9-12.6-6.7-18.1-11.2c7,7.3,15.3,13.2,24.7,17.4c13.4,6,28.3,8,43,6c19.7-2.7,38.5-12.7,52.9-28.2
								c7.4-7.9,13.4-17,17.8-26.9c9.8-21.9,11.2-46.1,4-68c-4.9-15.1-13.6-28-25.2-37.7c8.3,8.8,14.6,19.5,18.5,31.5
								C512.3,1485.1,510.9,1509.2,501.1,1531.2z"/>
						</g>
					</g>
				</g>
			</g>
			<g>
				<g>
					<path fill="#BCBEC0" d="M416.4,1128.8l-10-4.5c-1.5-3.5-3-7-4.3-10.2l4.8-10l-9-5.3l-2.7-1.6c-1.1-2.9-4.2-4.7-7.3-4.2
						c-3.1,0.5-5.4,3.2-5.6,6.3c-2.4,57,17.7,150.3,82,225.3c0.1,0.1,0.1,0.1,0.2,0.2l95.7,102c-1.9,1.7-3.7,3.4-5.4,5.3
						c-9.4,10.1-16,22.4-19.5,36.4c-5.6,22.4-2.5,46.4,8.8,67.6c15.3,28.8,43.8,47.9,74.4,50c14.9,1,29.6-2.1,42.5-9
						c7.7-4.1,14.6-9.4,20.5-15.7c9.4-10.1,16-22.4,19.5-36.5c5.6-22.4,2.5-46.4-8.8-67.6c-15.3-28.8-43.8-47.9-74.4-50
						c-10.5-0.7-20.8,0.6-30.7,3.9l-34.8-82.3c-0.5-1.3-1.4-2.3-2.6-3.1c-10.3-6.5-20.3-14.4-29.8-23.3l-3-15.4l-11.9,0.3
						c-1.9-2.1-3.7-4.1-5.6-6.2l1.3-13.4l-13.8-1.8c-1.9-2.4-3.8-4.9-5.6-7.3l1.1-13.1l-12.9-3.5c-1.7-2.4-3.3-4.9-4.9-7.3l4-13.5
						l-13.4-1.5c-1.5-2.4-2.9-4.8-4.4-7.3l1.6-14.1l-12.1-4.2c-1.2-2.2-2.4-4.4-3.6-6.6l3.8-13.3l-12.8-4.1c-1.7-3.4-3.4-6.8-5-10.1
						l2.9-8.7l-7.9-1.7c-1.5-3.3-3-6.5-4.5-9.7L416.4,1128.8z M662.8,1473c7.4,13.9,9.5,29.5,5.9,43.8c-2.1,8.4-6.1,16-11.6,21.9
						c-3.4,3.6-7.3,6.7-11.7,9c-7.5,4-15.8,5.7-24.5,5.1c-19.2-1.3-37.3-13.7-47.2-32.4c-7.4-13.9-9.5-29.5-5.9-43.8
						c2.1-8.4,6.1-16,11.7-21.9c3.4-3.6,7.3-6.7,11.7-9c7.5-4,15.8-5.7,24.5-5.1C634.8,1441.9,652.8,1454.3,662.8,1473z M529.2,1338
						c0.1,2.7-0.9,5.3-2.7,7.3c-1.9,2-4.4,3.2-7.1,3.2c-2.7,0.1-5.3-0.9-7.3-2.7c-2-1.9-3.2-4.4-3.3-7.1c-0.1-2.7,0.9-5.3,2.7-7.3
						c1.9-2,4.4-3.2,7.1-3.2c2.7-0.1,5.3,0.9,7.3,2.7C528,1332.8,529.1,1335.3,529.2,1338z"/>
				</g>
				<g>
					<g>
						<path fill="#BCBEC0" d="M553.6,1535.8c-11.3-21.2-14.4-45.2-8.8-67.6c3.5-14.1,10.1-26.3,19.5-36.4c1.7-1.8,3.5-3.6,5.4-5.3
							l-95.7-102c-0.1-0.1-0.1-0.1-0.2-0.2c-64.4-75-84.4-168.3-82-225.3c0.1-1.6,0.7-3.1,1.7-4.2c-1.5-1.4-3.6-2.1-5.7-1.8
							c-3.1,0.5-5.4,3.1-5.6,6.3c-2.4,57,17.7,150.3,82,225.3c0.1,0.1,0.1,0.2,0.2,0.2l95.7,102c-1.9,1.7-3.7,3.4-5.4,5.3
							c-9.4,10.1-16,22.4-19.5,36.4c-5.6,22.4-2.5,46.4,8.8,67.6c15.3,28.8,43.8,47.9,74.4,50c4.4,0.3,8.8,0.2,13.1-0.2
							c-1.2,0-2.4,0-3.6-0.1C597.4,1583.7,568.9,1564.5,553.6,1535.8z"/>
					</g>
					<g>
						<path fill="#BCBEC0" d="M683.4,1451.9c11.3,21.2,14.4,45.2,8.8,67.6c-3.5,14.1-10.1,26.4-19.5,36.5
							c-5.9,6.3-12.8,11.6-20.5,15.7c-12.9,6.9-27.6,10-42.5,9c-11.9-0.8-23.4-4.2-34-9.8c12.9,8.7,27.7,14,43,15.1
							c14.9,1,29.6-2.1,42.5-9c7.7-4.1,14.6-9.4,20.5-15.7c9.4-10.1,16-22.4,19.5-36.5c5.6-22.4,2.5-46.4-8.8-67.6
							c-9.4-17.6-23.6-31.6-40.3-40.3C664.8,1425.6,675.8,1437.6,683.4,1451.9z"/>
					</g>
				</g>
			</g>
		</g>
	</g>
	<g>
		<g>
			<path fill="#BCBEC0" d="M621.1,1076.7c-1.1-0.1-2.2,0.1-3.2,0.5l0,0l0,0c-1.1,0.5-2.1,1.2-2.9,2.2l-12.1,9.4l5.9,8.6
				c-1,2.9-2,5.9-3.1,9l-9.7,5l4.5,9.4c-1.3,3.5-2.6,7-4,10.7l-11.1,4.4l4.9,11.3c-1.4,3.4-2.8,6.8-4.3,10.3l-10.1,3l4.7,9.4
				c-1.4,3.1-2.8,6.2-4.2,9.3l-11.1,4.6l3.3,11.9c-1.2,2.4-2.4,4.9-3.6,7.3l-11.6,3.6l3.3,12.2c-1.6,3-3.3,5.9-4.9,8.9l-8.8,2.2
				l3,7.7c-1.5,2.5-3,4.9-4.5,7.4l-11.5,3.8l1.7,11.2c-1.7,2.5-3.5,5-5.2,7.5l-11.1,1.5l4.6,7.4l29.9,22.8l11.9,13.3
				c0,0,3.4-4.7,3.6-4.9c55.5-78.2,68-169.9,61.8-224.6C626.7,1079.4,624.2,1077,621.1,1076.7z"/>
		</g>
		<g>
			<path fill="#BCBEC0" d="M620.8,1076.7L620.8,1076.7c6.2,54.8-6.4,146.4-61.8,224.6c-0.1,0.2-2.2,3-3.1,4.3l5.8,6.5
				c0,0,3.4-4.7,3.6-4.9c55.5-78.2,68-169.9,61.8-224.6c-0.4-3.1-2.9-5.6-6-5.9C621,1076.6,620.9,1076.7,620.8,1076.7z"/>
		</g>
	</g>
</g>
<g>
	<g>
		<path fill="#2B3990" d="M1891.2,1466.1v74.5c0,0,119.9,30.4,143.3,11.9c23.4-18.5,31.7-56,31.7-56v-25.6c0,0,0-12.8-25.6-19
			c-19-4.6-53.3-10.6-74.5-9.7C1945,1443.1,1896.9,1442.3,1891.2,1466.1z"/>
	</g>
	<g>
		<path fill="#27AAE1" d="M2053,1492.1c-27.8,22.5-174.1,27.3-174.1,27.3l1.3,76.7c0,0,112.9-3.1,152.1-20.3
			c39.2-17.2,30.9-25.1,32.2-29.1c1.3-4,2.2-71.4,2.2-71.4S2064.8,1482.5,2053,1492.1z"/>
	</g>
	<g>
		<path fill="#231F20" d="M1911.5,1522.1c1.8,2.2,3.1,6.2,2.2,9.7c-0.9,3.5-5.7,4-5.3,6.6c0.4,2.6,8.4,4.9,9.3,12.3
			c0.9,7.5-0.9,15-5.3,19.8c-4.4,4.8-4,3.1-1.8,5.7c2.2,2.6,4.4,4,4.4,10.6c0,4.6-2.2,6.2-4.5,7.8c-17.9,1.1-30.3,1.4-30.3,1.4
			l-1.3-76.7c0,0,12.9-0.4,31.7-1.6C1910.5,1519.3,1910.6,1521,1911.5,1522.1z"/>
	</g>
	<g>
		<g>
			<path fill="#27AAE1" d="M1923.2,1487.9c17.1,5.7,35.8,6.4,53.7,6c5.7-0.1,11.4-0.3,17.1-0.6c-0.3,1.2,0.3,2.6,1.9,2.4
				c14.5-1.9,32.8-2.4,44.3-12.8c8.2-7.4,10.1-19.9,0.7-27.5c-11.8-9.6-27.9-9.7-42.3-10.3c-18.5-0.9-37-1.6-55.4,1.1
				c-13.2,1.9-34.5,3.7-40.9,17.7C1896.9,1475.7,1914.7,1485.1,1923.2,1487.9z M1948.1,1484.1c-4.2-1-8.9-1.9-12.6-4.3
				c-7.9-5.2-6-14,1.8-18.1c1.5-0.8,3-1.4,4.6-2c-4.2,2-9.4,5.3-9,10.4c0.4,5.3,4.3,9.1,9.3,10.8c9.1,3,18.9,2.7,28.4,3.3
				c8.3,0.5,17.4,1.4,25.5-1.1c5.6-1.7,10.2-4.7,10.7-11c0.4-5-6-9.5-10-11c-1.5-0.6-3-1-4.5-1.4c5.5,0.5,11.7,1.1,16.3,4
				c6.7,4.1,9.6,13.1,1,17.3c-8.6,4.2-19.3,4-28.6,4.6C1970,1486.3,1958.8,1486.5,1948.1,1484.1z M1953.3,1478.1
				c-2.9-1-15.6-5.9-8.2-11.8c2-1.6,4.3-2.8,6.8-3.5c1.4-0.4,2.8-0.7,4.1-0.9c-3.7,1.2-7.3,3.1-8.3,6.4c-3.9,13.7,25,11.4,31.5,10.7
				c4.2-0.5,11.9-0.9,13-6c0.8-3.6-6.3-4.7-8.4-4.7c-4.5,0-8.6,1.1-12.9,2.3c-2.8,0.8-6,1.8-9,1.5c-4.1,0.5-4.5-0.9-1.5-4.3
				c0.7-0.2,1.4-0.3,2.1-0.5c6.2-1.2,16.6-0.3,22-4.1c0.3-0.2,0.4-0.4,0.4-0.6c2,0.3,3.9,0.7,5.7,1.3c4.1,1.4,12.1,6.8,5.5,12.6
				c-1.7,1.5-3.6,2.5-5.9,2.9c-3.6,0.6-7.1,0.5-10.7,0.3C1970.8,1479,1961.7,1481,1953.3,1478.1z M1955,1472.7
				c4.7,4.3,13.9,0.9,18.9-0.5c2.5-0.7,5.3-1.6,7.9-1.7c2-0.2,4,0.1,6,0.6c0.1,1.1,0.3,2.3,0.4,3.4c-4.8,2.2-10.1,2.3-15.3,2.2
				c-5.3-0.2-11.3,0.4-16.4-1.2c-5.8-1.7-4.6-9.7,0.7-11.2c2.5-0.7,5-1.3,7.6-1.5c4-0.3,8.7-0.7,13.4-0.7
				C1968.2,1463.5,1947.9,1466.1,1955,1472.7z M1996.7,1464.4c5.1,2.8,12.4,8.9,3.3,13.8c-1.3,0.7-2.7,1.3-4.1,1.7
				C2003,1475,2001.5,1468.6,1996.7,1464.4z M1947.8,1479.2c-0.3-0.1-0.7-0.1-1-0.2c-3.5-0.9-14.9-4.5-10.1-11.5
				c2-2.9,4.8-4.7,8-5.8c1.8-0.6,3.6-1.1,5.4-1.5c-0.8,0.2-1.5,0.5-2.3,0.8c-4.1,1.7-9,5.7-7.7,10.8
				C1941.1,1475.1,1944.3,1477.6,1947.8,1479.2z M2007.8,1460c10.5,2.6,21.3,7.7,11.7,17.2c-1.4,1.4-3,2.6-4.7,3.7
				C2022.5,1472.2,2016.3,1464.1,2007.8,1460z M1915,1473.7c-3.2-6.7,4.2-10.8,9.2-12.4c3.6-1.1,7.3-1.9,11-2.4
				c-6,3.3-10.2,8.3-8.4,15.9c1.2,5.1,7.2,8.4,12.1,10.1c-3.2-0.5-6.4-1.2-9.5-2.3C1924.7,1481.1,1917.3,1478.5,1915,1473.7z
				 M2011.8,1457.1c1.2,0.2,2.3,0.4,3.5,0.6c5.4,1.1,13.5,2.7,16.3,8.1c3.2,6,1.1,13.6-4.9,17.1c-5.6,3.3-12.2,4.7-18.8,5.5
				c4.8-1.6,9.1-4,12.5-7.4C2030.9,1470.6,2023.2,1460.5,2011.8,1457.1z M1927.8,1453.2c21-4.7,41.9-5.1,63.2-4.3
				c10.8,0.4,22.2,0.2,32.7,2.8c7.2,1.7,17.5,5.6,19.1,13.9c1.9,9.5-4.1,15.3-12.6,19c8-7.3,9.9-20.3-1.5-26.3
				c-7.7-4.1-16.4-5.1-25-5.6c-9.9-0.6-19.8-1-29.6-0.7c-10.4,0.3-20.8,1.4-31.1,2.2c-7.8,0.6-15.7,1.4-23,4.5
				c-10.2,4.3-12.6,14.5-5.1,21.1c-3-1.8-5.5-4.1-7.2-7C1901,1460.7,1919.4,1455.1,1927.8,1453.2z"/>
		</g>
	</g>
	<g>
		<g>
			<path fill="#27AAE1" d="M1914.4,1489.2c15.8,7,34.3,9.8,51.5,10c10,0.1,20-0.4,29.9-0.7c9.3-0.3,18.7-0.5,27.9-2.3
				c12.6-2.5,27.6-8.8,33.7-21.1c5.8-11.5-0.4-18.1-9.7-21.5c-15-7.9-31.9-11.8-48.7-12.9c-20-1.2-40.8-0.9-60.7,1.7
				c-13.4,1.8-35.1,4.3-43,17.3C1886.5,1474.4,1902.8,1484,1914.4,1489.2z M1898.5,1465.5c3.1-7.6,12-11.4,19.3-13.9
				c14.6-4.9,30.4-5.8,45.7-6.5c15.2-0.6,30.6-1.3,45.7,0.7c15.8,2,29,8.3,43.6,13.7c0.2,0.1,0.4,0.1,0.6,0.1
				c3.2,2.9,4.7,6.7,1.9,12.1c-3,5.7-7.6,10.3-13.2,13.5c-12.6,7.2-27,8.6-41.3,8.9c-29.1,0.6-61.5,3.2-88.1-11.2
				C1907.2,1480,1895.1,1473.8,1898.5,1465.5z"/>
		</g>
	</g>
	<g>
		<path fill="#2B3990" d="M1962,1523.9c0.2-1.7,0.5-4.2,1.9-5.4c0.3-0.3,0.7-0.3,1,0c1.2,1.1,1.2,3,1.2,4.6c0.1,0.9,0.1,1.9,0.1,2.8
			c0,1.2-0.2,2.1-0.4,3.3c-0.2,1.3-2,1.3-2.6,0.3C1962,1527.7,1961.6,1526.2,1962,1523.9z"/>
	</g>
	<g>
		<path fill="#2B3990" d="M1961.8,1575.7c0.3-0.4,0.8-0.4,1.1,0c1.5,1.9,1.6,5.6,1.4,7.9c-0.1,0.9-0.6,1.6-1.4,1.9
			c-0.4,0.1-0.7,0.1-1,0c-0.9-0.3-1.4-1-1.4-1.9C1960.3,1581.3,1960.4,1577.6,1961.8,1575.7z"/>
	</g>
	<g>
		<path fill="#2B3990" d="M2022.4,1513.3c0.1-2,0.5-4.2,1.6-5.9c0.3-0.4,0.8-0.4,1.1,0c0.9,1.5,1.5,3.4,1.5,5.2c0.1,1.9,0.6,4.5-1,6
			c-0.7,0.6-1.5,0.6-2.1,0C2021.9,1517.2,2022.3,1515.1,2022.4,1513.3z"/>
	</g>
	<g>
		<path fill="#2B3990" d="M2023.4,1563.7c0.2-0.5,0.9-0.7,1.2-0.2c1.6,2.8,0.6,6.4,0.1,9.4c-0.3,1.9-3.6,2-3.9,0
			C2020.4,1569.5,2022.3,1566.7,2023.4,1563.7z"/>
	</g>
	<g>
		<path fill="#2B3990" d="M2062.9,1488.5c0.2-0.3,0.8-0.4,1.1,0c0.9,1.7,0.8,3.5,0.9,5.4c0.1,2.5,0.5,4.9-1.2,6.9
			c-0.5,0.6-1.8,0.5-2.2-0.3C2059.7,1496.8,2060.6,1491.7,2062.9,1488.5z"/>
	</g>
	<g>
		<path fill="#2B3990" d="M2059.5,1547.9c0.3-1.2,0.6-2.9,1.7-3.7c0.1-0.1,0.3-0.1,0.4,0c1.1,0.8,1.1,2.3,1.3,3.5
			c0.3,2,0,4.1-1.2,5.7c-0.7,0.9-2,0.8-2.4-0.3C2058.8,1551.4,2059.1,1549.7,2059.5,1547.9z"/>
	</g>
	<g>
		<path fill="#2B3990" d="M1951.5,1525.1c0.1-0.6,0.2-1.2,0.4-1.8c0.1-0.2,0.1-0.5,0.2-0.7c0.1-0.2-0.1-0.6,0.1-0.3
			c-0.3-0.4-0.1-1,0.4-1.1c2.5-0.2,1.9,4.6,1,5.8c-0.5,0.6-1.3,0.6-1.8,0.1C1951.2,1526.5,1951.4,1525.8,1951.5,1525.1z"/>
	</g>
	<g>
		<g>
			<path fill="#2B3990" d="M1944.8,1525.9c0.1-0.5,0.2-1.1,0.3-1.6c0.1-0.4,0.3-0.9,0.4-1.4c0-0.2,0.2-0.5,0.3-0.7c0,0,0,0,0,0
				c-0.1-0.3,0.2-0.6,0.5-0.6c1.2,0,1.5,1.5,1.6,2.4c0.1,0.8-0.1,1.5-0.3,2.2c-0.1,0.4-0.2,0.8-0.5,1.1c-0.1,0.1-0.2,0.2-0.4,0.3
				c0,0-0.4,0.1-0.6,0.1c-0.4,0.1-0.8-0.1-1-0.4c0.2,0.3-0.1-0.2-0.2-0.3C1944.7,1526.7,1944.7,1526.4,1944.8,1525.9z"/>
		</g>
		<g>
			<path fill="#2B3990" d="M1946.1,1527.8C1946.1,1527.8,1946.1,1527.8,1946.1,1527.8C1946,1527.8,1946,1527.8,1946.1,1527.8z"/>
		</g>
	</g>
	<g>
		<path fill="#2B3990" d="M1938,1524.2c0.1-0.8,0.6-1.7,1-2.2c0.4-0.5,1-0.2,1.3,0.2c0.5,0.6,0.4,1.4,0.5,2.2c0,0.9-0.2,1.8-0.9,2.5
			c-0.4,0.4-1,0.4-1.4,0C1937.8,1526,1937.9,1525.3,1938,1524.2z"/>
	</g>
	<g>
		<path fill="#2B3990" d="M1930.7,1527.6c0.1-0.5,0.2-0.9,0.3-1.4c0.1-0.8,0.3-1.6,0.8-2.3c0-0.3,0-0.6,0.2-0.9
			c0.3-0.4,0.8-0.4,1.1,0c0,0,0,0,0.1,0.1c0.6,0.1,0.9,0.8,0.8,1.3c-0.2,0.9-0.2,1.9-0.3,2.8c-0.1,0.5-0.2,1-0.5,1.4
			c-0.3,0.5-0.8,0.6-1.2,0.7c-0.4,0.2-1.1-0.2-1.2-0.7c0.3,0.3,0.3,0.3,0,0C1930.6,1528.3,1930.6,1528,1930.7,1527.6z"/>
	</g>
	<g>
		<path fill="#2B3990" d="M1924.2,1526.5c0.1-0.8,0.2-1.5,0.5-2.2c0.3-0.8,1.7-1.4,2.2-0.3c0.4,0.8,0.8,1.5,1,2.4
			c0.2,1.4-0.4,2.5-1.7,3c-0.7,0.3-1.2-0.2-1.5-0.7c-0.2-0.3-0.4-0.5-0.5-0.9C1924.1,1527.4,1924.1,1526.9,1924.2,1526.5z"/>
	</g>
	<g>
		<path fill="#2B3990" d="M1951.8,1583c0.2-0.9,0.6-1.7,1-2.6c0.2-0.6,1-0.3,1.2,0.2c0.3,0.9,0.5,1.9,0.3,2.8
			c-0.2,1-0.4,2.1-1.5,2.5c-0.3,0.1-0.7,0-0.8-0.2C1951.2,1584.8,1951.6,1583.9,1951.8,1583z"/>
	</g>
	<g>
		<path fill="#2B3990" d="M1943.7,1586.2c0.3-0.8,2.4-5.5,3.7-4.3c0.6,0.6,0.6,1.7,0.5,2.4c-0.2,1.1-0.7,2.2-1.2,3.1
			C1945.8,1589.1,1943,1588,1943.7,1586.2z"/>
	</g>
	<g>
		<path fill="#2B3990" d="M1936.9,1585.8c0.5-1.2,0.6-2.6,1.5-3.5c0.2-0.2,0.6-0.2,0.9,0c1.2,1.3,1.1,3.2,0.3,4.7
			c-0.3,0.6-1,0.8-1.7,0.7c0.1,0,0.1,0,0.2,0c-0.3,0-0.8-0.2-0.9-0.5l0.1,0.1C1936.9,1586.9,1936.7,1586.3,1936.9,1585.8z"/>
	</g>
	<g>
		<path fill="#2B3990" d="M1929.5,1586.3c0.2-0.7,0.5-1.4,0.9-2c0.3-0.5,0.9-0.9,1.3-1.2c0.6-0.4,1.3,0.2,1.3,0.8c0,0.5,0.1,1,0,1.6
			c-0.1,0.6-0.2,1.1-0.4,1.7c-0.3,0.8-1.1,1.4-2,1.1C1929.8,1588.1,1929.3,1587.2,1929.5,1586.3z"/>
	</g>
	<g>
		<path fill="#2B3990" d="M1922.2,1586.6c0.3-1,0.6-2,1.3-2.9c0.4-0.6,1.2-0.6,1.7,0c0.8,1.3,0.6,2.8-0.1,4
			C1924.1,1589.3,1921.8,1588.3,1922.2,1586.6z"/>
	</g>
	<g>
		<path fill="#2B3990" d="M2013.1,1513.3c0.2-0.8,1.4-0.8,1.6,0c0.1,0.7,0.2,1.4-0.1,2.1c-0.2,0.7-0.6,1.7-1.5,1.6
			C2011.3,1516.9,2012.9,1514.2,2013.1,1513.3z"/>
	</g>
	<g>
		<path fill="#2B3990" d="M2004.8,1515.5c0.4-1.1,1-2.5,2.2-2.9c0.5-0.2,1,0.2,1.2,0.7c0.2,0.5,0.1,0.9,0,1.4
			c-0.1,0.7-0.4,1.3-0.7,2C2006.8,1518.2,2004.1,1517.1,2004.8,1515.5z"/>
	</g>
	<g>
		<path fill="#2B3990" d="M1996.7,1515.6c0.2-0.4,0.6-0.9,1-1.1c0.4-0.2,0.7-0.3,1.1-0.3c0.3,0,0.7,0.1,0.7,0.5c0,0.1,0,0.1,0,0.1
			c0.1,0.2,0.1,0.4,0.1,0.7c0,0.3,0,0.6,0,1c0,0.8-0.3,1.9-0.8,2.6c-0.8,1.3-2.9,0.8-2.9-0.8
			C1996,1517.4,1996.3,1516.4,1996.7,1515.6z"/>
	</g>
	<g>
		<path fill="#2B3990" d="M1986.1,1517.9c0.2-0.8,0.3-1.4,0.7-2.1c0.3-0.6,1.2-0.6,1.5,0c0.4,0.7,0.6,1.4,0.5,2.2
			c-0.1,1-0.5,1.9-1.6,2C1986.1,1520,1986,1518.7,1986.1,1517.9z"/>
	</g>
	<g>
		<path fill="#2B3990" d="M1976.8,1519.1c0.2-0.8,0.8-1.8,1.4-2.3c0.4-0.4,1-0.4,1.4,0c0.8,0.7,1,1.8,1,2.8c0,0.5-0.2,1-0.4,1.4
			c-0.1,0.4-0.3,0.7-0.6,1c-0.3,0.3-0.5,0.2-0.9,0.5c-0.7,0.5-1.5,0-1.8-0.6C1976.3,1521,1976.6,1520.1,1976.8,1519.1z"/>
	</g>
	<g>
		<path fill="#2B3990" d="M2012,1575.3c0.3-0.7,0.8-1.4,1.2-2c0.3-0.5,1.1-0.5,1.4,0c0.4,0.9,0.3,1.6,0.2,2.5
			c-0.1,0.4-0.3,0.8-0.5,1.2c-0.2,0.5-0.6,0.7-1,1c-0.5,0.4-1.3,0-1.4-0.6C2011.5,1576.6,2011.7,1576.1,2012,1575.3z"/>
	</g>
	<g>
		<path fill="#2B3990" d="M2002.7,1576.9c0.2-0.5,0.4-0.9,0.7-1.4c0.4-0.7,0.9-1.5,1.7-1.8c0.3-0.1,0.6,0.1,0.8,0.3
			c0.5,0.6,0.3,1.7,0.3,2.4c-0.1,0.6-0.3,1.2-0.6,1.8c-0.3,0.6-0.7,0.8-1.3,1.1c-0.7,0.4-1.7-0.1-1.7-1
			C2002.5,1577.8,2002.4,1577.5,2002.7,1576.9z"/>
	</g>
	<g>
		<path fill="#2B3990" d="M1989.3,1579.9c0.2-0.8,0.5-1.6,0.8-2.3c0.3-0.7,0.8-1,1.4-1.3c0.4-0.2,1,0.1,0.8,0.6
			c-0.1,0.2,0.1,0.4,0.2,0.6c0.1,0.4,0.1,0.8,0.1,1.2c0.1,0.9,0,1.7-0.4,2.5c-0.4,0.6-1.2,1-1.9,0.8c-0.1,0-0.3-0.1-0.4-0.2
			C1989.4,1581.4,1989.1,1580.7,1989.3,1579.9z"/>
	</g>
	<g>
		<path fill="#2B3990" d="M1978.7,1580.3c0.3-1.4,0.8-3.2,2.5-3.4c0.4,0,0.6,0.3,0.7,0.7c0-0.3,0.1,0.4,0.1,0.4
			c0.1,0.4,0.2,0.7,0.2,1.1c0.1,0.9-0.1,1.7-0.5,2.4C1980.7,1583.2,1978.3,1582.1,1978.7,1580.3z"/>
	</g>
	<g>
		<path fill="#2B3990" d="M1970.1,1582.2C1970.2,1582.2,1970.2,1582.2,1970.1,1582.2c0-0.1,0-0.1,0.1-0.2c0.1-0.4,0.4-0.8,0.6-1.3
			c0.1-0.2,0.2-0.4,0.4-0.5c0.1-0.1,0.2-0.1,0.3-0.2c-0.1,0.1-0.1,0.1,0,0c0,0,0.7-0.5,0.3-0.2c0.2-0.2,0.4-0.2,0.6-0.3
			c0.7-0.3,1.2,0.6,0.9,1.2c0.1,0.3,0.2,0.6,0.2,1c0.2,1.1,0,2.3-1.1,3c-1.1,0.7-2.6-0.2-2.6-1.5
			C1969.9,1582.9,1970,1582.6,1970.1,1582.2z"/>
	</g>
	<g>
		<path fill="#2B3990" d="M2054.6,1499c0-1.1,0.3-2.1,1.2-2.8c0.5-0.4,1.2,0,1.4,0.6c0.4,1,0.4,2.2,0.2,3.3c-0.1,0.5-0.6,0.9-1,1
			c-0.6,0.1-0.9,0-1.4-0.4C2054.5,1500.3,2054.6,1499.6,2054.6,1499z"/>
	</g>
	<g>
		<path fill="#2B3990" d="M2048.3,1501.6c0.2-0.5,0.9-1.5,1.6-1.1c1.2,0.7,0.9,2.1,0.8,3.2c-0.1,0.8-0.6,1.4-1.4,1.4
			c-0.7,0-1.5-0.7-1.4-1.4C2047.9,1503,2048.1,1502.3,2048.3,1501.6z"/>
	</g>
	<g>
		<path fill="#2B3990" d="M2042,1505.4c0.2-0.8,0.5-1.5,1-2.1c0.4-0.6,1.2-0.6,1.6,0c0.5,0.8,0.6,1.7,0.4,2.6
			c-0.1,0.7-0.7,1.7-1.6,1.7C2042.3,1507.5,2041.8,1506.2,2042,1505.4z"/>
	</g>
	<g>
		<path fill="#2B3990" d="M2034.3,1510.4c0.4-1.4,1.2-2.6,1.8-3.9c0.3-0.7,1.2-0.4,1.4,0.2c0.6,1.5,0.3,3.4-0.5,4.9
			c-0.2,0.4-0.8,0.8-1.3,0.7c-0.4,0-0.7-0.1-1-0.4C2034.3,1511.5,2034.1,1510.9,2034.3,1510.4z"/>
	</g>
	<g>
		<path fill="#2B3990" d="M2030.1,1508.2c0.6-0.5,1.6-0.2,1.6,0.6c0,0.2,0,0.4,0,0.6c0.1,0.5,0,0.9-0.1,1.3
			c-0.1,0.7-0.5,1.3-1.2,1.6c-0.6,0.3-1.2,0.1-1.4-0.6C2028.6,1510.5,2029.2,1509.1,2030.1,1508.2z"/>
	</g>
	<g>
		<path fill="#2B3990" d="M2053.3,1555.4c0.3-0.8,0.7-1.5,1.1-2.2c0.3-0.5,1.1-0.5,1.4,0c0.4,0.8,0.5,1.6,0.1,2.4
			c-0.4,0.9-0.6,2.2-1.6,2.6c-0.4,0.2-0.9,0.1-1.2-0.3C2052.6,1557.1,2053,1556.3,2053.3,1555.4z"/>
	</g>
	<g>
		<path fill="#2B3990" d="M2047.7,1560.6c0.1-0.4,0.1-0.7,0.1-1c0-0.5,0.1-1.1,0.2-1.6c0.2-0.8,0.8-1.4,1.6-1.6
			c0.4-0.1,0.6,0.3,0.5,0.6c0,0,0,0.1,0,0.1c0.2,0.5,0.3,1.1,0.5,1.6c0.3,0.9,0.1,2-0.3,2.8C2049.5,1563,2047.1,1562,2047.7,1560.6z
			"/>
	</g>
	<g>
		<path fill="#2B3990" d="M2041.7,1563.9c0.1-0.7,0.5-1.4,0.9-2.1c0.3-0.5,1.2-0.6,1.5,0c0.7,1.4,0.6,3.1-0.5,4.3
			c-0.3,0.4-1.1,0.4-1.4,0C2041.7,1565.4,2041.6,1564.8,2041.7,1563.9z"/>
	</g>
	<g>
		<path fill="#2B3990" d="M2032.3,1568.8c0.2-0.6,0.3-1.2,0.6-1.7c0.1-0.2,0.2-0.4,0.3-0.6c0.1-0.3,0.6-0.6,0.7-0.7
			c0.5-0.4,1.2-0.5,1.6,0c0.6,0.6,0.8,1.1,0.9,2c0.1,0.7-0.2,1.3-0.5,2c-0.4,0.9-1.2,1.6-2.3,1.3
			C2032.6,1570.8,2032,1569.7,2032.3,1568.8z"/>
	</g>
</g>
<g>
	<g>
		<path fill="#BCBEC0" d="M183.1,1189.8c0,0,15.9-35.9,5-58.5c-10.9-22.6-41.8-15.9-13.4-168l40.1,127v99.5H183.1z"/>
		<circle fill="#222830" cx="184.8" cy="1103.7" r="7.1"/>
	</g>
	<g>
		<path fill="#BCBEC0" d="M138.4,1189.8c0,0-15.9-35.9-5-58.5c10.9-22.6,41.8-15.9,13.4-168l-40.1,127v99.5H138.4z"/>
		<circle fill="#222830" cx="136.7" cy="1103.7" r="7.1"/>
	</g>
	<g>
		<path fill="#F27520" d="M241.6,1282.6c-25.1-5-20.9-43.5-20.9-43.5s-9.4-87.3,0-116.6c4.4-13.7,12.3-25.6,7.5-30.1
			c-5-4.7-27.6-1.3-27.6-1.3c-6.7,0-6.7,3.3-6.7,15c0,11.7-13.4,33.7-13.4,33.7v49.9h-15.3l0,37.2l-11.5-0.2v9.8h18.4v128.7
			c0,0,11.7,23.4,11.7,75.2c0,51.8,0,71,0,71h-60.2c0,0,0-4.2,0-71s13-76.9,13-76.9v-138.7h27.4v-40.1h-23.6v-42.6
			c0,0-14.2-22.6-14.2-37.6c0-15-5-15-24.2-13.4s1.7,25.1,2.5,79.4c0.8,54.3-5,54.3-10.9,80.2c-5.9,25.9,10.9,42.6,10.9,95.3
			c0,52.7,0,117,0,177.2s10.9,50.1,51.8,50.1s44.3,10.9,44.3-50.1s-7.5-83.6,43.5-92.8s107-7.5,109.5-91.1
			C356.1,1255.8,266.7,1287.6,241.6,1282.6z M271,1394c-34.3,2.4-63.5-15.5-65.2-39.9c-1.7-24.4,24.7-46.1,59-48.5
			s63.5,15.5,65.2,39.9C331.8,1369.9,305.3,1391.7,271,1394z"/>
	</g>
</g>
<g>
	<g>
		<g>
			<path fill="#BCBEC0" d="M943.2,942.1c-1.9-27.1-20.4,7.1-20.4,7.1l-8.2,283.8c22.8,16.9,36.1,63.2,40.5,81.5h14.8L943.2,942.1z"
				/>
			<path fill="#27AAE1" d="M1024.3,1400.9c-57.2-15-47-86.5-47-86.5h-7.4h-14.8h-5.8c0,0,1.7,60.8,8.2,159.3
				c6.8,103,28.6,122.1,58.6,123.5c30,1.4,74.9,2.7,82.4-72.2C1106,1450,1081.5,1415.9,1024.3,1400.9z M1030.4,1560.2
				c-26.3,0-47.7-26.8-47.7-59.8c0-33,21.4-59.8,47.7-59.8s47.7,26.8,47.7,59.8C1078.1,1533.4,1056.7,1560.2,1030.4,1560.2z"/>
		</g>
		<path fill="#27AAE1" d="M967.1,1458.1h-22.3c-2.6,0-4.7,2.1-4.7,4.7v19.9c0,2.6,2.1,4.7,4.7,4.7h22.3c2.6,0,4.7-2.1,4.7-4.7v-19.9
			C971.8,1460.3,969.7,1458.1,967.1,1458.1z"/>
	</g>
	<g>
		<g>
			<path fill="#231F20" d="M931.7,940.9l-23.8,381H918c0,0,13.6-67.8,42.2-89L955.5,948C955.5,948,933.6,913.8,931.7,940.9z"/>
			<path fill="#BCBEC0" d="M935.6,942.1l-27.3,379.8H922c0,0,13.6-67.8,42.2-89l-8.2-283.8C956.1,949.1,937.6,915,935.6,942.1z"/>
			<g>
				<path fill="#27AAE1" d="M901.6,1314.4c0,0,10.2,71.5-47,86.5s-81.8,49.1-74.3,124c7.5,74.9,52.5,73.6,82.4,72.2
					c30-1.4,51.8-20.4,58.6-123.5c6.5-98.4,8.2-159.3,8.2-159.3H901.6z M848.4,1560.2c-26.3,0-47.7-26.8-47.7-59.8
					c0-33,21.4-59.8,47.7-59.8c26.3,0,47.7,26.8,47.7,59.8C896.1,1533.4,874.8,1560.2,848.4,1560.2z"/>
			</g>
		</g>
		<path fill="#27AAE1" d="M910.4,1458.1h22.3c2.6,0,4.7,2.1,4.7,4.7v19.9c0,2.6-2.1,4.7-4.7,4.7h-22.3c-2.6,0-4.7-2.1-4.7-4.7v-19.9
			C905.7,1460.3,907.8,1458.1,910.4,1458.1z"/>
	</g>
	<circle fill="#251C1D" cx="938.2" cy="1226" r="8.9"/>
</g>
<g>
	<path fill="none" d="M1753.2,299.5c-206.9,0-375.2,168.3-375.2,375.2s168.3,375.2,375.2,375.2s375.2-168.3,375.2-375.2
		S1960.1,299.5,1753.2,299.5z"/>
	<path fill="#E9966E" d="M2044.2,384c-77.7-77.7-181.1-120.5-291-120.5c-109.9,0-213.2,42.8-291,120.5
		c-77.7,77.7-120.5,181.1-120.5,291s42.8,213.2,120.5,291c77.7,77.7,181.1,120.5,291,120.5c109.9,0,213.2-42.8,291-120.5
		c77.7-77.7,120.5-181.1,120.5-291S2121.9,461.7,2044.2,384z M1753.2,1050.2c-206.9,0-375.2-168.3-375.2-375.2
		s168.3-375.2,375.2-375.2s375.2,168.3,375.2,375.2S1960.1,1050.2,1753.2,1050.2z"/>
	<g>
		<rect x="1269.5" y="556.7" fill="#603913" width="13" height="185.3"/>
		<polygon fill="#754C29" points="1282.5,558 1269.5,559 1269.5,557.7 1282.5,556.7 		"/>
		<polygon fill="#754C29" points="1282.5,560.4 1269.5,561.4 1269.5,560 1282.5,559 		"/>
		<polygon fill="#754C29" points="1282.5,563 1269.5,564 1269.5,562.6 1282.5,561.6 		"/>
		<polygon fill="#754C29" points="1282.5,565.3 1269.5,566.3 1269.5,565 1282.5,564 		"/>
		<polygon fill="#754C29" points="1282.5,567.9 1269.5,568.9 1269.5,567.6 1282.5,566.6 		"/>
		<polygon fill="#754C29" points="1282.5,570.3 1269.5,571.3 1269.5,569.9 1282.5,568.9 		"/>
		<polygon fill="#754C29" points="1282.5,572.9 1269.5,573.9 1269.5,572.5 1282.5,571.5 		"/>
		<polygon fill="#754C29" points="1282.5,575.2 1269.5,576.2 1269.5,574.9 1282.5,573.9 		"/>
		<polygon fill="#754C29" points="1282.5,577.8 1269.5,578.8 1269.5,577.5 1282.5,576.5 		"/>
		<polygon fill="#754C29" points="1282.5,580.2 1269.5,581.2 1269.5,579.8 1282.5,578.8 		"/>
		<polygon fill="#754C29" points="1282.5,582.8 1269.5,583.8 1269.5,582.4 1282.5,581.4 		"/>
		<polygon fill="#754C29" points="1282.5,585.1 1269.5,586.1 1269.5,584.8 1282.5,583.8 		"/>
		<polygon fill="#754C29" points="1282.5,587.7 1269.5,588.7 1269.5,587.4 1282.5,586.4 		"/>
		<polygon fill="#754C29" points="1282.5,590.1 1269.5,591.1 1269.5,589.7 1282.5,588.7 		"/>
		<polygon fill="#754C29" points="1282.5,592.7 1269.5,593.7 1269.5,592.3 1282.5,591.3 		"/>
		<polygon fill="#754C29" points="1282.5,595 1269.5,596 1269.5,594.7 1282.5,593.7 		"/>
		<polygon fill="#754C29" points="1282.5,597.6 1269.5,598.6 1269.5,597.3 1282.5,596.3 		"/>
		<polygon fill="#754C29" points="1282.5,600 1269.5,601 1269.5,599.6 1282.5,598.6 		"/>
		<polygon fill="#754C29" points="1282.5,602.6 1269.5,603.6 1269.5,602.3 1282.5,601.2 		"/>
		<polygon fill="#754C29" points="1282.5,604.9 1269.5,605.9 1269.5,604.6 1282.5,603.6 		"/>
		<polygon fill="#754C29" points="1282.5,607.5 1269.5,608.5 1269.5,607.2 1282.5,606.2 		"/>
		<polygon fill="#754C29" points="1282.5,609.9 1269.5,610.9 1269.5,609.6 1282.5,608.5 		"/>
		<polygon fill="#754C29" points="1282.5,612.5 1269.5,613.5 1269.5,612.2 1282.5,611.1 		"/>
		<polygon fill="#754C29" points="1282.5,614.8 1269.5,615.8 1269.5,614.5 1282.5,613.5 		"/>
		<polygon fill="#754C29" points="1282.5,617.4 1269.5,618.4 1269.5,617.1 1282.5,616.1 		"/>
		<polygon fill="#754C29" points="1282.5,619.8 1269.5,620.8 1269.5,619.5 1282.5,618.4 		"/>
		<polygon fill="#754C29" points="1282.5,622.4 1269.5,623.4 1269.5,622.1 1282.5,621 		"/>
		<polygon fill="#754C29" points="1282.5,624.7 1269.5,625.7 1269.5,624.4 1282.5,623.4 		"/>
		<polygon fill="#754C29" points="1282.5,627.3 1269.5,628.3 1269.5,627 1282.5,626 		"/>
		<polygon fill="#754C29" points="1282.5,629.7 1269.5,630.7 1269.5,629.4 1282.5,628.3 		"/>
		<polygon fill="#754C29" points="1282.5,632.3 1269.5,633.3 1269.5,632 1282.5,630.9 		"/>
		<polygon fill="#754C29" points="1282.5,634.6 1269.5,635.6 1269.5,634.3 1282.5,633.3 		"/>
		<polygon fill="#754C29" points="1282.5,637.2 1269.5,638.2 1269.5,636.9 1282.5,635.9 		"/>
		<polygon fill="#754C29" points="1282.5,639.6 1269.5,640.6 1269.5,639.3 1282.5,638.2 		"/>
		<polygon fill="#754C29" points="1282.5,642.2 1269.5,643.2 1269.5,641.9 1282.5,640.9 		"/>
		<polygon fill="#754C29" points="1282.5,644.5 1269.5,645.5 1269.5,644.2 1282.5,643.2 		"/>
		<polygon fill="#754C29" points="1282.5,647.1 1269.5,648.2 1269.5,646.8 1282.5,645.8 		"/>
		<polygon fill="#754C29" points="1282.5,649.5 1269.5,650.5 1269.5,649.2 1282.5,648.2 		"/>
		<polygon fill="#754C29" points="1282.5,652.1 1269.5,653.1 1269.5,651.8 1282.5,650.8 		"/>
		<polygon fill="#754C29" points="1282.5,654.4 1269.5,655.5 1269.5,654.1 1282.5,653.1 		"/>
		<polygon fill="#754C29" points="1282.5,657 1269.5,658.1 1269.5,656.7 1282.5,655.7 		"/>
		<polygon fill="#754C29" points="1282.5,659.4 1269.5,660.4 1269.5,659.1 1282.5,658.1 		"/>
		<polygon fill="#754C29" points="1282.5,662 1269.5,663 1269.5,661.7 1282.5,660.7 		"/>
		<polygon fill="#754C29" points="1282.5,664.3 1269.5,665.4 1269.5,664 1282.5,663 		"/>
		<polygon fill="#754C29" points="1282.5,666.9 1269.5,668 1269.5,666.6 1282.5,665.6 		"/>
		<polygon fill="#754C29" points="1282.5,669.3 1269.5,670.3 1269.5,669 1282.5,668 		"/>
		<polygon fill="#754C29" points="1282.5,671.9 1269.5,672.9 1269.5,671.6 1282.5,670.6 		"/>
		<polygon fill="#754C29" points="1282.5,674.2 1269.5,675.3 1269.5,673.9 1282.5,672.9 		"/>
		<polygon fill="#754C29" points="1282.5,676.8 1269.5,677.9 1269.5,676.5 1282.5,675.5 		"/>
		<polygon fill="#754C29" points="1282.5,679.2 1269.5,680.2 1269.5,678.9 1282.5,677.9 		"/>
		<polygon fill="#754C29" points="1282.5,681.8 1269.5,682.8 1269.5,681.5 1282.5,680.5 		"/>
		<polygon fill="#754C29" points="1282.5,684.1 1269.5,685.2 1269.5,683.8 1282.5,682.8 		"/>
		<polygon fill="#754C29" points="1282.5,686.8 1269.5,687.8 1269.5,686.4 1282.5,685.4 		"/>
		<polygon fill="#754C29" points="1282.5,689.1 1269.5,690.1 1269.5,688.8 1282.5,687.8 		"/>
		<polygon fill="#754C29" points="1282.5,691.7 1269.5,692.7 1269.5,691.4 1282.5,690.4 		"/>
		<polygon fill="#754C29" points="1282.5,694.1 1269.5,695.1 1269.5,693.7 1282.5,692.7 		"/>
		<polygon fill="#754C29" points="1282.5,696.7 1269.5,697.7 1269.5,696.3 1282.5,695.3 		"/>
		<polygon fill="#754C29" points="1282.5,699 1269.5,700 1269.5,698.7 1282.5,697.7 		"/>
		<polygon fill="#754C29" points="1282.5,701.6 1269.5,702.6 1269.5,701.3 1282.5,700.3 		"/>
		<polygon fill="#754C29" points="1282.5,704 1269.5,705 1269.5,703.6 1282.5,702.6 		"/>
		<polygon fill="#754C29" points="1282.5,706.6 1269.5,707.6 1269.5,706.2 1282.5,705.2 		"/>
		<polygon fill="#754C29" points="1282.5,708.9 1269.5,709.9 1269.5,708.6 1282.5,707.6 		"/>
		<polygon fill="#754C29" points="1282.5,711.5 1269.5,712.5 1269.5,711.2 1282.5,710.2 		"/>
		<polygon fill="#754C29" points="1282.5,713.9 1269.5,714.9 1269.5,713.5 1282.5,712.5 		"/>
		<polygon fill="#754C29" points="1282.5,716.5 1269.5,717.5 1269.5,716.1 1282.5,715.1 		"/>
		<polygon fill="#754C29" points="1282.5,718.8 1269.5,719.8 1269.5,718.5 1282.5,717.5 		"/>
		<polygon fill="#754C29" points="1282.5,721.4 1269.5,722.4 1269.5,721.1 1282.5,720.1 		"/>
		<polygon fill="#754C29" points="1282.5,723.8 1269.5,724.8 1269.5,723.4 1282.5,722.4 		"/>
		<polygon fill="#754C29" points="1282.5,726.4 1269.5,727.4 1269.5,726 1282.5,725 		"/>
		<polygon fill="#754C29" points="1282.5,728.7 1269.5,729.7 1269.5,728.4 1282.5,727.4 		"/>
		<polygon fill="#754C29" points="1282.5,731.3 1269.5,732.3 1269.5,731 1282.5,730 		"/>
		<polygon fill="#754C29" points="1282.5,733.7 1269.5,734.7 1269.5,733.3 1282.5,732.3 		"/>
		<polygon fill="#754C29" points="1282.5,736.3 1269.5,737.3 1269.5,735.9 1282.5,734.9 		"/>
		<polygon fill="#754C29" points="1282.5,738.6 1269.5,739.6 1269.5,738.3 1282.5,737.3 		"/>
		<rect x="1263.4" y="735.9" fill="#3C2415" width="25.2" height="10.1"/>
		<rect x="1263.4" y="596.3" fill="#3C2415" width="25.2" height="10.1"/>
		<rect x="1263.4" y="574.2" fill="#3C2415" width="25.2" height="10.1"/>
		<rect x="1267" y="579.3" fill="#3C2415" width="18" height="20.1"/>
		<g>
			<path fill="#3C2415" d="M1271.2,740.8c0,0-13.9,0-20.3,6.9c-6.4,6.9-6.5,20.3,1.5,16.4c8.1-3.9,16.1-16.8,21.5-16.3
				c5.4,0.5,3.4-8.4,3.4-8.4L1271.2,740.8z"/>
			<path fill="#3C2415" d="M1280.8,740.8c0,0,13.9,0,20.3,6.9c6.4,6.9,6.5,20.3-1.5,16.4c-8.1-3.9-16.1-16.8-21.5-16.3
				c-5.4,0.5-3.4-8.4-3.4-8.4L1280.8,740.8z"/>
		</g>
	</g>
	<path fill="#1B75BC" d="M1321.3,584.3c0,0-10.3,16.3-17.3,20.1c-10.7,5.8-48.5,6.7-48.5,6.7c-1.6,0-3,1.3-3,3v33c0,1.6,1.3,3,3,3
		h65.9c1.6,0,3-1.3,3-3v-59.9C1324.3,585.6,1323,584.3,1321.3,584.3z"/>
	<path fill="#1B75BC" d="M1321.3,757.5c0,0-10.3-16.3-17.3-20.1c-10.7-5.8-48.5-6.7-48.5-6.7c-1.6,0-3-1.3-3-3v-33c0-1.6,1.3-3,3-3
		h65.9c1.6,0,3,1.3,3,3v59.9C1324.3,756.2,1323,757.5,1321.3,757.5z"/>
	<path fill="none" d="M1348.7,691.5h-6.6c4.1,103.6,46.4,200.4,120.2,274.2c77.7,77.7,181.1,120.5,291,120.5
		c109.9,0,213.2-42.8,291-120.5c77.7-77.7,120.5-181.1,120.5-291s-42.8-213.2-120.5-291c-77.7-77.7-181.1-120.5-291-120.5
		c-109.9,0-213.2,42.8-291,120.5c-71.9,71.9-113.9,165.7-119.8,266.3h6.2V691.5z"/>
	<path fill="#1B75BC" d="M2067.2,360.8c-83.9-83.9-195.4-130.1-314-130.1c-118.6,0-230.1,46.2-314,130.1
		c-78,78-123.4,180-129.4,289.3h32.6c5.9-100.6,47.9-194.4,119.8-266.3c77.7-77.7,181.1-120.5,291-120.5
		c109.9,0,213.2,42.8,291,120.5c77.7,77.7,120.5,181.1,120.5,291s-42.8,213.2-120.5,291c-77.7,77.7-181.1,120.5-291,120.5
		c-109.9,0-213.2-42.8-291-120.5c-73.8-73.8-116-170.6-120.2-274.2h-32.6c4.1,112.3,49.8,217.3,129.7,297.2
		c83.9,83.9,195.4,130.1,314,130.1c118.6,0,230.1-46.2,314-130.1c83.9-83.9,130.1-195.4,130.1-314
		C2197.3,556.2,2151.1,444.7,2067.2,360.8z"/>
</g>
<g>
	<path fill="none" d="M1795.4,411.3c-148.9,0-270.1,121.2-270.1,270.1s121.2,270.1,270.1,270.1s270.1-121.2,270.1-270.1
		S1944.4,411.3,1795.4,411.3z"/>
	<path fill="#E9966E" d="M2004.9,472c-55.9-55.9-130.3-86.8-209.5-86.8c-79.1,0-153.5,30.8-209.5,86.8
		c-55.9,55.9-86.8,130.3-86.8,209.5S1530,835,1586,890.9c55.9,55.9,130.3,86.8,209.5,86.8c79.1,0,153.5-30.8,209.5-86.8
		c55.9-55.9,86.8-130.3,86.8-209.5S2060.8,528,2004.9,472z M1795.4,951.6c-148.9,0-270.1-121.2-270.1-270.1s121.2-270.1,270.1-270.1
		s270.1,121.2,270.1,270.1S1944.4,951.6,1795.4,951.6z"/>
	<g>
		<rect x="1447.2" y="596.4" fill="#603913" width="9.3" height="133.4"/>
		<polygon fill="#754C29" points="1456.6,597.3 1447.2,598.1 1447.2,597.1 1456.6,596.4 		"/>
		<polygon fill="#754C29" points="1456.6,599 1447.2,599.7 1447.2,598.8 1456.6,598.1 		"/>
		<polygon fill="#754C29" points="1456.6,600.9 1447.2,601.6 1447.2,600.7 1456.6,599.9 		"/>
		<polygon fill="#754C29" points="1456.6,602.6 1447.2,603.3 1447.2,602.3 1456.6,601.6 		"/>
		<polygon fill="#754C29" points="1456.6,604.5 1447.2,605.2 1447.2,604.2 1456.6,603.5 		"/>
		<polygon fill="#754C29" points="1456.6,606.2 1447.2,606.9 1447.2,605.9 1456.6,605.2 		"/>
		<polygon fill="#754C29" points="1456.6,608 1447.2,608.7 1447.2,607.8 1456.6,607.1 		"/>
		<polygon fill="#754C29" points="1456.6,609.7 1447.2,610.4 1447.2,609.5 1456.6,608.7 		"/>
		<polygon fill="#754C29" points="1456.6,611.6 1447.2,612.3 1447.2,611.3 1456.6,610.6 		"/>
		<polygon fill="#754C29" points="1456.6,613.3 1447.2,614 1447.2,613 1456.6,612.3 		"/>
		<polygon fill="#754C29" points="1456.6,615.2 1447.2,615.9 1447.2,614.9 1456.6,614.2 		"/>
		<polygon fill="#754C29" points="1456.6,616.8 1447.2,617.6 1447.2,616.6 1456.6,615.9 		"/>
		<polygon fill="#754C29" points="1456.6,618.7 1447.2,619.4 1447.2,618.5 1456.6,617.7 		"/>
		<polygon fill="#754C29" points="1456.6,620.4 1447.2,621.1 1447.2,620.2 1456.6,619.4 		"/>
		<polygon fill="#754C29" points="1456.6,622.3 1447.2,623 1447.2,622 1456.6,621.3 		"/>
		<polygon fill="#754C29" points="1456.6,624 1447.2,624.7 1447.2,623.7 1456.6,623 		"/>
		<polygon fill="#754C29" points="1456.6,625.8 1447.2,626.6 1447.2,625.6 1456.6,624.9 		"/>
		<polygon fill="#754C29" points="1456.6,627.5 1447.2,628.3 1447.2,627.3 1456.6,626.6 		"/>
		<polygon fill="#754C29" points="1456.6,629.4 1447.2,630.1 1447.2,629.2 1456.6,628.4 		"/>
		<polygon fill="#754C29" points="1456.6,631.1 1447.2,631.8 1447.2,630.9 1456.6,630.1 		"/>
		<polygon fill="#754C29" points="1456.6,633 1447.2,633.7 1447.2,632.7 1456.6,632 		"/>
		<polygon fill="#754C29" points="1456.6,634.7 1447.2,635.4 1447.2,634.4 1456.6,633.7 		"/>
		<polygon fill="#754C29" points="1456.6,636.5 1447.2,637.3 1447.2,636.3 1456.6,635.6 		"/>
		<polygon fill="#754C29" points="1456.6,638.2 1447.2,639 1447.2,638 1456.6,637.3 		"/>
		<polygon fill="#754C29" points="1456.6,640.1 1447.2,640.8 1447.2,639.9 1456.6,639.1 		"/>
		<polygon fill="#754C29" points="1456.6,641.8 1447.2,642.5 1447.2,641.5 1456.6,640.8 		"/>
		<polygon fill="#754C29" points="1456.6,643.7 1447.2,644.4 1447.2,643.4 1456.6,642.7 		"/>
		<polygon fill="#754C29" points="1456.6,645.4 1447.2,646.1 1447.2,645.1 1456.6,644.4 		"/>
		<polygon fill="#754C29" points="1456.6,647.2 1447.2,648 1447.2,647 1456.6,646.3 		"/>
		<polygon fill="#754C29" points="1456.6,648.9 1447.2,649.6 1447.2,648.7 1456.6,648 		"/>
		<polygon fill="#754C29" points="1456.6,650.8 1447.2,651.5 1447.2,650.5 1456.6,649.8 		"/>
		<polygon fill="#754C29" points="1456.6,652.5 1447.2,653.2 1447.2,652.2 1456.6,651.5 		"/>
		<polygon fill="#754C29" points="1456.6,654.4 1447.2,655.1 1447.2,654.1 1456.6,653.4 		"/>
		<polygon fill="#754C29" points="1456.6,656 1447.2,656.8 1447.2,655.8 1456.6,655.1 		"/>
		<polygon fill="#754C29" points="1456.6,657.9 1447.2,658.6 1447.2,657.7 1456.6,657 		"/>
		<polygon fill="#754C29" points="1456.6,659.6 1447.2,660.3 1447.2,659.4 1456.6,658.6 		"/>
		<polygon fill="#754C29" points="1456.6,661.5 1447.2,662.2 1447.2,661.2 1456.6,660.5 		"/>
		<polygon fill="#754C29" points="1456.6,663.2 1447.2,663.9 1447.2,662.9 1456.6,662.2 		"/>
		<polygon fill="#754C29" points="1456.6,665 1447.2,665.8 1447.2,664.8 1456.6,664.1 		"/>
		<polygon fill="#754C29" points="1456.6,666.7 1447.2,667.5 1447.2,666.5 1456.6,665.8 		"/>
		<polygon fill="#754C29" points="1456.6,668.6 1447.2,669.3 1447.2,668.4 1456.6,667.6 		"/>
		<polygon fill="#754C29" points="1456.6,670.3 1447.2,671 1447.2,670.1 1456.6,669.3 		"/>
		<polygon fill="#754C29" points="1456.6,672.2 1447.2,672.9 1447.2,671.9 1456.6,671.2 		"/>
		<polygon fill="#754C29" points="1456.6,673.9 1447.2,674.6 1447.2,673.6 1456.6,672.9 		"/>
		<polygon fill="#754C29" points="1456.6,675.7 1447.2,676.5 1447.2,675.5 1456.6,674.8 		"/>
		<polygon fill="#754C29" points="1456.6,677.4 1447.2,678.2 1447.2,677.2 1456.6,676.5 		"/>
		<polygon fill="#754C29" points="1456.6,679.3 1447.2,680 1447.2,679.1 1456.6,678.3 		"/>
		<polygon fill="#754C29" points="1456.6,681 1447.2,681.7 1447.2,680.8 1456.6,680 		"/>
		<polygon fill="#754C29" points="1456.6,682.9 1447.2,683.6 1447.2,682.6 1456.6,681.9 		"/>
		<polygon fill="#754C29" points="1456.6,684.6 1447.2,685.3 1447.2,684.3 1456.6,683.6 		"/>
		<polygon fill="#754C29" points="1456.6,686.4 1447.2,687.2 1447.2,686.2 1456.6,685.5 		"/>
		<polygon fill="#754C29" points="1456.6,688.1 1447.2,688.8 1447.2,687.9 1456.6,687.2 		"/>
		<polygon fill="#754C29" points="1456.6,690 1447.2,690.7 1447.2,689.8 1456.6,689 		"/>
		<polygon fill="#754C29" points="1456.6,691.7 1447.2,692.4 1447.2,691.4 1456.6,690.7 		"/>
		<polygon fill="#754C29" points="1456.6,693.6 1447.2,694.3 1447.2,693.3 1456.6,692.6 		"/>
		<polygon fill="#754C29" points="1456.6,695.2 1447.2,696 1447.2,695 1456.6,694.3 		"/>
		<polygon fill="#754C29" points="1456.6,697.1 1447.2,697.8 1447.2,696.9 1456.6,696.2 		"/>
		<polygon fill="#754C29" points="1456.6,698.8 1447.2,699.5 1447.2,698.6 1456.6,697.8 		"/>
		<polygon fill="#754C29" points="1456.6,700.7 1447.2,701.4 1447.2,700.4 1456.6,699.7 		"/>
		<polygon fill="#754C29" points="1456.6,702.4 1447.2,703.1 1447.2,702.1 1456.6,701.4 		"/>
		<polygon fill="#754C29" points="1456.6,704.2 1447.2,705 1447.2,704 1456.6,703.3 		"/>
		<polygon fill="#754C29" points="1456.6,705.9 1447.2,706.7 1447.2,705.7 1456.6,705 		"/>
		<polygon fill="#754C29" points="1456.6,707.8 1447.2,708.5 1447.2,707.6 1456.6,706.8 		"/>
		<polygon fill="#754C29" points="1456.6,709.5 1447.2,710.2 1447.2,709.3 1456.6,708.5 		"/>
		<polygon fill="#754C29" points="1456.6,711.4 1447.2,712.1 1447.2,711.1 1456.6,710.4 		"/>
		<polygon fill="#754C29" points="1456.6,713.1 1447.2,713.8 1447.2,712.8 1456.6,712.1 		"/>
		<polygon fill="#754C29" points="1456.6,714.9 1447.2,715.7 1447.2,714.7 1456.6,714 		"/>
		<polygon fill="#754C29" points="1456.6,716.6 1447.2,717.4 1447.2,716.4 1456.6,715.7 		"/>
		<polygon fill="#754C29" points="1456.6,718.5 1447.2,719.2 1447.2,718.3 1456.6,717.5 		"/>
		<polygon fill="#754C29" points="1456.6,720.2 1447.2,720.9 1447.2,720 1456.6,719.2 		"/>
		<polygon fill="#754C29" points="1456.6,722.1 1447.2,722.8 1447.2,721.8 1456.6,721.1 		"/>
		<polygon fill="#754C29" points="1456.6,723.8 1447.2,724.5 1447.2,723.5 1456.6,722.8 		"/>
		<polygon fill="#754C29" points="1456.6,725.6 1447.2,726.4 1447.2,725.4 1456.6,724.7 		"/>
		<polygon fill="#754C29" points="1456.6,727.3 1447.2,728 1447.2,727.1 1456.6,726.4 		"/>
		<rect x="1442.8" y="725.4" fill="#3C2415" width="18.1" height="7.2"/>
		<rect x="1442.8" y="624.9" fill="#3C2415" width="18.1" height="7.2"/>
		<rect x="1442.8" y="609" fill="#3C2415" width="18.1" height="7.2"/>
		<rect x="1445.4" y="612.6" fill="#3C2415" width="13" height="14.5"/>
		<g>
			<path fill="#3C2415" d="M1448.4,728.9c0,0-10,0-14.6,5c-4.6,5-4.7,14.6,1.1,11.8c5.8-2.8,11.6-12.1,15.5-11.7
				c3.9,0.4,2.4-6,2.4-6L1448.4,728.9z"/>
			<path fill="#3C2415" d="M1455.4,728.9c0,0,10,0,14.6,5c4.6,5,4.7,14.6-1.1,11.8s-11.6-12.1-15.5-11.7c-3.9,0.4-2.4-6-2.4-6
				L1455.4,728.9z"/>
		</g>
	</g>
	<path fill="#EE2A7B" d="M1484.5,616.2c0,0-7.4,11.7-12.5,14.5c-7.7,4.2-34.9,4.8-34.9,4.8c-1.2,0-2.1,1-2.1,2.1v23.8
		c0,1.2,1,2.1,2.1,2.1h47.4c1.2,0,2.1-1,2.1-2.1v-43.1C1486.6,617.2,1485.7,616.2,1484.5,616.2z"/>
	<path fill="#EE2A7B" d="M1484.5,740.9c0,0-7.4-11.7-12.5-14.5c-7.7-4.2-34.9-4.8-34.9-4.8c-1.2,0-2.1-1-2.1-2.1v-23.8
		c0-1.2,1-2.1,2.1-2.1h47.4c1.2,0,2.1,1,2.1,2.1v43.1C1486.6,740,1485.7,740.9,1484.5,740.9z"/>
	<path fill="none" d="M1504.2,693.4h-4.7c3,74.6,33.4,144.3,86.5,197.4c55.9,55.9,130.3,86.8,209.5,86.8
		c79.1,0,153.5-30.8,209.5-86.8c55.9-55.9,86.8-130.3,86.8-209.5s-30.8-153.5-86.8-209.5c-55.9-55.9-130.3-86.8-209.5-86.8
		c-79.1,0-153.5,30.8-209.5,86.8c-51.7,51.7-82,119.3-86.2,191.7h4.5V693.4z"/>
	<path fill="#EE2A7B" d="M2021.4,455.4c-60.4-60.4-140.6-93.6-226-93.6c-85.4,0-165.6,33.2-226,93.6
		c-56.2,56.2-88.8,129.6-93.1,208.3h23.5c4.3-72.4,34.5-140,86.2-191.7c55.9-55.9,130.3-86.8,209.5-86.8
		c79.1,0,153.5,30.8,209.5,86.8c55.9,55.9,86.8,130.3,86.8,209.5s-30.8,153.5-86.8,209.5c-55.9,55.9-130.3,86.8-209.5,86.8
		c-79.1,0-153.5-30.8-209.5-86.8c-53.1-53.1-83.5-122.8-86.5-197.4H1476c3,80.8,35.9,156.4,93.4,213.9
		c60.4,60.4,140.6,93.6,226,93.6c85.4,0,165.6-33.2,226-93.6c60.4-60.4,93.6-140.6,93.6-226C2115,596,2081.8,515.7,2021.4,455.4z"/>
</g>
<g>
	<path fill="none" d="M1833.9,498.6c-102.3,0-185.6,83.3-185.6,185.6s83.3,185.6,185.6,185.6c102.3,0,185.6-83.3,185.6-185.6
		S1936.2,498.6,1833.9,498.6z"/>
	<path fill="#E9966E" d="M1977.8,540.4c-38.4-38.4-89.5-59.6-143.9-59.6c-54.4,0-105.5,21.2-143.9,59.6
		c-38.4,38.4-59.6,89.5-59.6,143.9s21.2,105.5,59.6,143.9c38.4,38.4,89.5,59.6,143.9,59.6c54.4,0,105.5-21.2,143.9-59.6
		c38.4-38.4,59.6-89.5,59.6-143.9S2016.2,578.8,1977.8,540.4z M1833.9,869.8c-102.3,0-185.6-83.3-185.6-185.6
		s83.3-185.6,185.6-185.6c102.3,0,185.6,83.3,185.6,185.6S1936.2,869.8,1833.9,869.8z"/>
	<g>
		<rect x="1594.6" y="625.8" fill="#603913" width="6.4" height="91.6"/>
		<polygon fill="#754C29" points="1601.1,626.4 1594.6,626.9 1594.6,626.3 1601.1,625.8 		"/>
		<polygon fill="#754C29" points="1601.1,627.6 1594.6,628.1 1594.6,627.4 1601.1,626.9 		"/>
		<polygon fill="#754C29" points="1601.1,628.9 1594.6,629.4 1594.6,628.7 1601.1,628.2 		"/>
		<polygon fill="#754C29" points="1601.1,630.1 1594.6,630.6 1594.6,629.9 1601.1,629.4 		"/>
		<polygon fill="#754C29" points="1601.1,631.3 1594.6,631.8 1594.6,631.2 1601.1,630.7 		"/>
		<polygon fill="#754C29" points="1601.1,632.5 1594.6,633 1594.6,632.3 1601.1,631.8 		"/>
		<polygon fill="#754C29" points="1601.1,633.8 1594.6,634.3 1594.6,633.6 1601.1,633.1 		"/>
		<polygon fill="#754C29" points="1601.1,635 1594.6,635.5 1594.6,634.8 1601.1,634.3 		"/>
		<polygon fill="#754C29" points="1601.1,636.2 1594.6,636.7 1594.6,636.1 1601.1,635.6 		"/>
		<polygon fill="#754C29" points="1601.1,637.4 1594.6,637.9 1594.6,637.2 1601.1,636.7 		"/>
		<polygon fill="#754C29" points="1601.1,638.7 1594.6,639.2 1594.6,638.5 1601.1,638 		"/>
		<polygon fill="#754C29" points="1601.1,639.8 1594.6,640.3 1594.6,639.7 1601.1,639.2 		"/>
		<polygon fill="#754C29" points="1601.1,641.1 1594.6,641.6 1594.6,641 1601.1,640.5 		"/>
		<polygon fill="#754C29" points="1601.1,642.3 1594.6,642.8 1594.6,642.1 1601.1,641.6 		"/>
		<polygon fill="#754C29" points="1601.1,643.6 1594.6,644.1 1594.6,643.4 1601.1,642.9 		"/>
		<polygon fill="#754C29" points="1601.1,644.7 1594.6,645.2 1594.6,644.6 1601.1,644.1 		"/>
		<polygon fill="#754C29" points="1601.1,646 1594.6,646.5 1594.6,645.9 1601.1,645.4 		"/>
		<polygon fill="#754C29" points="1601.1,647.2 1594.6,647.7 1594.6,647 1601.1,646.5 		"/>
		<polygon fill="#754C29" points="1601.1,648.5 1594.6,649 1594.6,648.3 1601.1,647.8 		"/>
		<polygon fill="#754C29" points="1601.1,649.6 1594.6,650.1 1594.6,649.5 1601.1,649 		"/>
		<polygon fill="#754C29" points="1601.1,650.9 1594.6,651.4 1594.6,650.8 1601.1,650.3 		"/>
		<polygon fill="#754C29" points="1601.1,652.1 1594.6,652.6 1594.6,651.9 1601.1,651.4 		"/>
		<polygon fill="#754C29" points="1601.1,653.4 1594.6,653.9 1594.6,653.2 1601.1,652.7 		"/>
		<polygon fill="#754C29" points="1601.1,654.5 1594.6,655 1594.6,654.4 1601.1,653.9 		"/>
		<polygon fill="#754C29" points="1601.1,655.8 1594.6,656.3 1594.6,655.7 1601.1,655.2 		"/>
		<polygon fill="#754C29" points="1601.1,657 1594.6,657.5 1594.6,656.8 1601.1,656.3 		"/>
		<polygon fill="#754C29" points="1601.1,658.3 1594.6,658.8 1594.6,658.1 1601.1,657.6 		"/>
		<polygon fill="#754C29" points="1601.1,659.4 1594.6,659.9 1594.6,659.3 1601.1,658.8 		"/>
		<polygon fill="#754C29" points="1601.1,660.7 1594.6,661.2 1594.6,660.6 1601.1,660.1 		"/>
		<polygon fill="#754C29" points="1601.1,661.9 1594.6,662.4 1594.6,661.7 1601.1,661.2 		"/>
		<polygon fill="#754C29" points="1601.1,663.2 1594.6,663.7 1594.6,663 1601.1,662.5 		"/>
		<polygon fill="#754C29" points="1601.1,664.3 1594.6,664.8 1594.6,664.2 1601.1,663.7 		"/>
		<polygon fill="#754C29" points="1601.1,665.6 1594.6,666.1 1594.6,665.5 1601.1,665 		"/>
		<polygon fill="#754C29" points="1601.1,666.8 1594.6,667.3 1594.6,666.6 1601.1,666.1 		"/>
		<polygon fill="#754C29" points="1601.1,668.1 1594.6,668.6 1594.6,667.9 1601.1,667.4 		"/>
		<polygon fill="#754C29" points="1601.1,669.2 1594.6,669.7 1594.6,669.1 1601.1,668.6 		"/>
		<polygon fill="#754C29" points="1601.1,670.5 1594.6,671 1594.6,670.4 1601.1,669.9 		"/>
		<polygon fill="#754C29" points="1601.1,671.7 1594.6,672.2 1594.6,671.5 1601.1,671 		"/>
		<polygon fill="#754C29" points="1601.1,673 1594.6,673.5 1594.6,672.8 1601.1,672.3 		"/>
		<polygon fill="#754C29" points="1601.1,674.1 1594.6,674.6 1594.6,674 1601.1,673.5 		"/>
		<polygon fill="#754C29" points="1601.1,675.4 1594.6,675.9 1594.6,675.3 1601.1,674.8 		"/>
		<polygon fill="#754C29" points="1601.1,676.6 1594.6,677.1 1594.6,676.4 1601.1,675.9 		"/>
		<polygon fill="#754C29" points="1601.1,677.9 1594.6,678.4 1594.6,677.7 1601.1,677.2 		"/>
		<polygon fill="#754C29" points="1601.1,679 1594.6,679.5 1594.6,678.9 1601.1,678.4 		"/>
		<polygon fill="#754C29" points="1601.1,680.3 1594.6,680.8 1594.6,680.1 1601.1,679.6 		"/>
		<polygon fill="#754C29" points="1601.1,681.5 1594.6,682 1594.6,681.3 1601.1,680.8 		"/>
		<polygon fill="#754C29" points="1601.1,682.8 1594.6,683.3 1594.6,682.6 1601.1,682.1 		"/>
		<polygon fill="#754C29" points="1601.1,683.9 1594.6,684.4 1594.6,683.8 1601.1,683.3 		"/>
		<polygon fill="#754C29" points="1601.1,685.2 1594.6,685.7 1594.6,685 1601.1,684.5 		"/>
		<polygon fill="#754C29" points="1601.1,686.4 1594.6,686.9 1594.6,686.2 1601.1,685.7 		"/>
		<polygon fill="#754C29" points="1601.1,687.7 1594.6,688.2 1594.6,687.5 1601.1,687 		"/>
		<polygon fill="#754C29" points="1601.1,688.8 1594.6,689.3 1594.6,688.7 1601.1,688.2 		"/>
		<polygon fill="#754C29" points="1601.1,690.1 1594.6,690.6 1594.6,689.9 1601.1,689.4 		"/>
		<polygon fill="#754C29" points="1601.1,691.3 1594.6,691.8 1594.6,691.1 1601.1,690.6 		"/>
		<polygon fill="#754C29" points="1601.1,692.6 1594.6,693.1 1594.6,692.4 1601.1,691.9 		"/>
		<polygon fill="#754C29" points="1601.1,693.7 1594.6,694.2 1594.6,693.6 1601.1,693.1 		"/>
		<polygon fill="#754C29" points="1601.1,695 1594.6,695.5 1594.6,694.8 1601.1,694.3 		"/>
		<polygon fill="#754C29" points="1601.1,696.2 1594.6,696.7 1594.6,696 1601.1,695.5 		"/>
		<polygon fill="#754C29" points="1601.1,697.5 1594.6,698 1594.6,697.3 1601.1,696.8 		"/>
		<polygon fill="#754C29" points="1601.1,698.6 1594.6,699.1 1594.6,698.4 1601.1,698 		"/>
		<polygon fill="#754C29" points="1601.1,699.9 1594.6,700.4 1594.6,699.7 1601.1,699.2 		"/>
		<polygon fill="#754C29" points="1601.1,701.1 1594.6,701.6 1594.6,700.9 1601.1,700.4 		"/>
		<polygon fill="#754C29" points="1601.1,702.4 1594.6,702.8 1594.6,702.2 1601.1,701.7 		"/>
		<polygon fill="#754C29" points="1601.1,703.5 1594.6,704 1594.6,703.3 1601.1,702.8 		"/>
		<polygon fill="#754C29" points="1601.1,704.8 1594.6,705.3 1594.6,704.6 1601.1,704.1 		"/>
		<polygon fill="#754C29" points="1601.1,706 1594.6,706.5 1594.6,705.8 1601.1,705.3 		"/>
		<polygon fill="#754C29" points="1601.1,707.2 1594.6,707.7 1594.6,707.1 1601.1,706.6 		"/>
		<polygon fill="#754C29" points="1601.1,708.4 1594.6,708.9 1594.6,708.2 1601.1,707.7 		"/>
		<polygon fill="#754C29" points="1601.1,709.7 1594.6,710.2 1594.6,709.5 1601.1,709 		"/>
		<polygon fill="#754C29" points="1601.1,710.9 1594.6,711.4 1594.6,710.7 1601.1,710.2 		"/>
		<polygon fill="#754C29" points="1601.1,712.1 1594.6,712.6 1594.6,712 1601.1,711.5 		"/>
		<polygon fill="#754C29" points="1601.1,713.3 1594.6,713.8 1594.6,713.1 1601.1,712.6 		"/>
		<polygon fill="#754C29" points="1601.1,714.6 1594.6,715.1 1594.6,714.4 1601.1,713.9 		"/>
		<polygon fill="#754C29" points="1601.1,715.8 1594.6,716.3 1594.6,715.6 1601.1,715.1 		"/>
		<rect x="1591.6" y="714.4" fill="#3C2415" width="12.5" height="5"/>
		<rect x="1591.6" y="645.4" fill="#3C2415" width="12.5" height="5"/>
		<rect x="1591.6" y="634.5" fill="#3C2415" width="12.5" height="5"/>
		<rect x="1593.4" y="636.9" fill="#3C2415" width="8.9" height="10"/>
		<g>
			<path fill="#3C2415" d="M1595.5,716.8c0,0-6.9,0-10,3.4s-3.2,10,0.7,8.1c4-1.9,8-8.3,10.6-8.1c2.7,0.2,1.7-4.2,1.7-4.2
				L1595.5,716.8z"/>
			<path fill="#3C2415" d="M1600.2,716.8c0,0,6.9,0,10,3.4s3.2,10-0.7,8.1s-8-8.3-10.6-8.1c-2.7,0.2-1.7-4.2-1.7-4.2L1600.2,716.8z"
				/>
		</g>
	</g>
	<path fill="#F15A29" d="M1620.3,639.4c0,0-5.1,8.1-8.6,10c-5.3,2.9-24,3.3-24,3.3c-0.8,0-1.5,0.7-1.5,1.5v16.3
		c0,0.8,0.7,1.5,1.5,1.5h32.6c0.8,0,1.5-0.7,1.5-1.5v-29.6C1621.7,640.1,1621.1,639.4,1620.3,639.4z"/>
	<path fill="#F15A29" d="M1620.3,725.1c0,0-5.1-8.1-8.6-10c-5.3-2.9-24-3.3-24-3.3c-0.8,0-1.5-0.7-1.5-1.5V694
		c0-0.8,0.7-1.5,1.5-1.5h32.6c0.8,0,1.5,0.7,1.5,1.5v29.6C1621.7,724.4,1621.1,725.1,1620.3,725.1z"/>
	<path fill="none" d="M1633.8,692.5h-3.3c2,51.2,23,99.1,59.4,135.6c38.4,38.4,89.5,59.6,143.9,59.6c54.4,0,105.5-21.2,143.9-59.6
		c38.4-38.4,59.6-89.5,59.6-143.9s-21.2-105.5-59.6-143.9c-38.4-38.4-89.5-59.6-143.9-59.6c-54.4,0-105.5,21.2-143.9,59.6
		c-35.5,35.5-56.3,81.9-59.2,131.7h3.1V692.5z"/>
	<path fill="#F15A29" d="M1989.2,528.9c-41.5-41.5-96.6-64.3-155.3-64.3c-58.7,0-113.8,22.8-155.3,64.3c-38.6,38.6-61,89-64,143.1
		h16.1c2.9-49.8,23.7-96.2,59.2-131.7c38.4-38.4,89.5-59.6,143.9-59.6c54.4,0,105.5,21.2,143.9,59.6c38.4,38.4,59.6,89.5,59.6,143.9
		s-21.2,105.5-59.6,143.9c-38.4,38.4-89.5,59.6-143.9,59.6c-54.4,0-105.5-21.2-143.9-59.6c-36.5-36.5-57.4-84.4-59.4-135.6h-16.1
		c2,55.5,24.6,107.5,64.2,147c41.5,41.5,96.6,64.3,155.3,64.3c58.7,0,113.8-22.8,155.3-64.3c41.5-41.5,64.3-96.6,64.3-155.3
		C2053.5,625.5,2030.6,570.4,1989.2,528.9z"/>
</g>
<g>
	<path fill="#231F20" d="M1189.7,550.8c-2.8,0-5.1,13.7-5.1,16.5v59.3c0,2.8,2.3,5.1,5.1,5.1c2.8,0,5.1-2.3,5.1-5.1v-59.3
		C1194.9,564.5,1192.6,550.8,1189.7,550.8z"/>
	<polygon fill="#E46936" points="1184.7,571.3 1161.7,661.1 1196.1,678.6 1217.8,659.1 1195,569.4 1193.1,575.5 1190.4,567.2 
		1188.1,575.1 	"/>
	<g>
		<path fill="#E46936" d="M1205.3,1571.2h12.5V659.1c0,0-1.6-12.1-6.2-12.1s-6.2,14.1-6.2,14.1V1571.2z"/>
		<path fill="#E46936" d="M1161.7,1571.2h12.5V659.1c0,0-1.6-12.1-6.2-12.1s-6.2,14.1-6.2,14.1V1571.2z"/>
		<path fill="#E9966E" d="M1174.3,1571.2h30.8V659.1c0,0-3.9-12.1-15.4-12.1c-11.5,0-15.4,14.1-15.4,14.1V1571.2z"/>
	</g>
</g>
</svg>
